<?xml version="1.0" encoding="utf-8"?>
<!-- Generator: Adobe Illustrator 16.0.0, SVG Export Plug-In . SVG Version: 6.00 Build 0)  -->
<!DOCTYPE svg PUBLIC "-//W3C//DTD SVG 1.1//EN" "http://www.w3.org/Graphics/SVG/1.1/DTD/svg11.dtd">
<svg version="1.1" id="Layer_1" xmlns="http://www.w3.org/2000/svg" xmlns:xlink="http://www.w3.org/1999/xlink" x="0px" y="0px"
	 width="612px" height="612px" viewBox="0 0 612 612" enable-background="new 0 0 612 612" xml:space="preserve">
<g>
	<defs>
		<path id="SVGID_1_" d="M574.334,569.438c-44.625,52.537-479.151,50.118-526.51,4.359C0.475,528.038-20.459,176.723,43.465,47.281
			C99.208-15.99,541.723-5.454,569.976,42.926C612.938,85.442,618.967,516.901,574.334,569.438z"/>
	</defs>
	<clipPath id="SVGID_2_">
		<use xlink:href="#SVGID_1_"  overflow="visible"/>
	</clipPath>
	<g clip-path="url(#SVGID_2_)">
		<g>
			<path fill="#BF4141" d="M231.309,137.538c0,3.697,1.008,3.95,2.95,7.044c2.187,3.487,1.917,8.225,1.8,12.158
				c-0.272,9.157,0.126,18.248,0.268,27.405c0.236,15.157-3.54,31.44-17.644,39.529c-7.229,4.146-16.49,4.621-24.098,1.357
				c-7.506-3.22-13.212-9.815-18.278-15.984c-5.7-6.941-8.735-16.498-5.729-25.236c2.26-6.571,9.768-10.487,15.329-13.8
				c2.767-1.648,0.253-5.972-2.523-4.317c-6.565,3.911-13.447,8.071-16.944,15.158c-3.769,7.637-2.012,17.162,1.497,24.5
				c3.962,8.287,11.745,15.905,19.143,21.159c7.47,5.305,16.341,6.555,25.185,4.824c16.715-3.271,26.184-19.277,28.478-34.992
				c1.634-11.195-0.045-22.706,0.091-33.963c0.054-4.435,0.637-8.892-0.038-13.309c-0.304-1.99-0.709-3.985-1.616-5.804
				c-0.966-1.939-2.869-3.544-2.869-5.729C236.309,134.313,231.309,134.313,231.309,137.538L231.309,137.538z"/>
		</g>
	</g>
	<g clip-path="url(#SVGID_2_)">
		<g>
			<path fill="#BF4141" d="M346.825,142.454c0.271,4.149,1.789,7.549,3.897,11.085c2.723,4.566,5.017,8.926,6.755,13.991
				c3.332,9.711,5.098,20.224,6.683,30.346c1.674,10.692,1.69,21.599-1.994,31.878c-3.408,9.51-10.594,15.323-19.965,18.424
				c-13.107,4.338-29.338,4.921-42.875,2.234c-5.537-1.099-11.841-2.772-16.112-6.667c-5.978-5.45,4.453-11.898,8.385-14.337
				c2.733-1.695,0.225-6.022-2.523-4.317c-5.427,3.366-13.196,8.46-12.672,15.836c0.4,5.628,6.212,9.079,10.837,11.031
				c15.105,6.374,32.797,5.684,48.636,2.916c8.785-1.536,17.392-4.91,23.745-11.332c7.48-7.561,10.081-19.237,10.597-29.479
				c0.608-12.083-2.297-24.316-4.775-36.055c-1.24-5.875-2.841-11.741-5.192-17.276c-2.532-5.962-7.994-11.681-8.426-18.279
				C351.615,139.253,346.614,139.233,346.825,142.454L346.825,142.454z"/>
		</g>
	</g>
	<g clip-path="url(#SVGID_2_)">
		<g>
			<path fill="#BF4141" d="M280.962,244.2c-2.722,8.833,19.108,12.429,24.113,13.57c13.546,3.087,28.06,3.062,41.09-2.219
				c18.077-7.325,25.683-24.8,25.406-43.395c-0.155-10.503-0.53-21.385-3.443-31.521c-3.213-11.177-8.775-21.587-10.155-33.266
				c-0.374-3.162-5.378-3.198-5,0c2.079,17.598,12.006,32.8,12.842,50.684c0.452,9.666,1.642,19.29-0.561,28.838
				c-2.005,8.694-7.759,16.19-15.135,21.029c-10.742,7.049-25.984,8.364-38.396,6.121c-2.918-0.527-26.777-5.794-25.94-8.512
				C286.736,242.439,281.909,241.128,280.962,244.2L280.962,244.2z"/>
		</g>
	</g>
	<g clip-path="url(#SVGID_2_)">
		<g>
			<path fill="#BF4141" d="M410.105,257.107c9.245,1.712,18.596,3.208,28.027,2.981c8.43-0.203,18.512-2.293,21.537-11.258
				c1.945-5.764-0.1-12.953-1.387-18.631c-1.96-8.646-2.4-17.379-3.556-26.155c-1.006-7.632-1.04-15.216-1.72-22.853
				c-0.496-5.576-2.558-10.393-7.385-13.451c-2.732-1.731-5.238,2.597-2.523,4.317c5.275,3.342,5.1,9.928,5.207,15.499
				c0.13,6.795,1.035,13.49,1.908,20.221c0.83,6.391,0.936,12.832,2.216,19.157c1.308,6.456,3.625,13.062,2.629,19.724
				c-1.252,8.384-13.987,8.506-20.229,8.456c-7.869-0.064-15.68-1.399-23.395-2.829C408.284,251.702,406.938,256.52,410.105,257.107
				L410.105,257.107z"/>
		</g>
	</g>
	<g clip-path="url(#SVGID_2_)">
		<g>
			<path fill="#BF4141" d="M489.129,193.692c-1.282,2.742-3.295-1.322-1.73,1.702c0.471,0.909,0.826,1.875,1.191,2.829
				c0.532,1.388,1.107,2.845,1.365,4.315c0.645,3.673,0.69,7.515,0.758,11.231c0.07,3.845,0.812,22.305-5.38,22.451
				c0.833,0.833,1.667,1.667,2.5,2.5c-0.339-7.238-0.038-14.471,0-21.711c0.017-3.225-4.983-3.224-5,0
				c-0.038,7.241-0.339,14.473,0,21.711c0.062,1.335,1.09,2.533,2.5,2.5c11.741-0.277,10.538-21.89,10.335-29.451
				c-0.137-5.124-0.493-10.049-2.257-14.876c-0.896-2.453-5.553-12.235-8.599-5.725C483.454,194.07,487.764,196.61,489.129,193.692
				L489.129,193.692z"/>
		</g>
	</g>
	<g clip-path="url(#SVGID_2_)">
		<g>
			<path fill="#BF4141" d="M143.482,489.995c-0.179,0-0.358,0-0.538,0c-3.225,0-3.225,5,0,5c8.103,0,15.768,1.02,23.814-0.978
				c4.751-1.18,11.114-3.747,12.52-9.05c1.962-7.403-1.696-14.461-2.953-21.68c-1.621-9.307-1.642-18.842-2.99-28.193
				c-0.458-3.181-5.276-1.823-4.821,1.33c1.047,7.261,1.377,14.597,2.141,21.889c0.689,6.579,2.553,12.648,3.991,19.057
				c3.631,16.184-22.796,12.625-31.702,12.625c-3.225,0-3.225,5,0,5c0.179,0,0.358,0,0.538,0
				C146.707,494.995,146.707,489.995,143.482,489.995L143.482,489.995z"/>
		</g>
	</g>
	<g clip-path="url(#SVGID_2_)">
		<g>
			<path fill="#BF4141" d="M214.395,463.564c-3.583,16.596,36.679,9.248,43.796,6.591c13.317-4.973,7.045-19.463,5.234-29.951
				c-2.371-13.729-6.901-29.758-20.37-36.507c-2.874-1.44-5.407,2.872-2.523,4.316c10.583,5.305,14.574,17.196,17.08,28.001
				c0.84,3.622,1.252,7.338,2.047,10.974c0.719,3.29,1.797,6.195,2.019,9.602c0.298,4.571-0.785,7.119-4.816,8.744
				c-6.89,2.776-14.799,3.479-22.153,3.611c-2.093,0.037-16.394,0.123-15.492-4.051C219.895,461.75,215.075,460.414,214.395,463.564
				L214.395,463.564z"/>
		</g>
	</g>
	<g clip-path="url(#SVGID_2_)">
		<g>
			<path fill="#BF4141" d="M302.015,459.561c4.193,0.511,8.048,1.463,12.337,1.712c4.272,0.249,8.504,0.698,12.787,0.741
				c5.232,0.054,12.028-0.556,15.315-5.261c4.531-6.482,0.959-15.864-1.172-22.57c-1.714-5.396-4.211-10.222-6.38-15.418
				c-2.141-5.13-3.225-10.487-5.949-15.4c-1.563-2.819-5.882-0.299-4.316,2.523c2.202,3.972,3.469,8.22,4.871,12.513
				c1.415,4.327,3.798,8.216,5.361,12.486c2.179,5.951,7.069,16.487,3.767,22.629c-2.36,4.39-10.546,3.566-14.604,3.428
				c-3.802-0.129-7.586-0.549-11.384-0.77c-3.671-0.214-7.026-1.174-10.633-1.613C298.819,454.171,298.856,459.176,302.015,459.561
				L302.015,459.561z"/>
		</g>
	</g>
	<g clip-path="url(#SVGID_2_)">
		<g>
			<path fill="#BF4141" d="M377.053,459.234c1.549,1.77,4.559,2.368,6.697,3.017c4.409,1.337,8.959,1.928,13.493,2.667
				c3.818,0.621,8.183,3.423,11.993,1.899c3.206-1.281,3.675-4.987,3.631-7.975c-0.144-9.747-2.414-19.1-5.677-28.254
				c-2.854-8.007-7.42-15.334-15.021-19.519c-2.826-1.557-5.348,2.762-2.523,4.316c6.088,3.353,9.663,8.915,12.224,15.22
				c2.675,6.584,4.88,14.16,5.642,21.215c0.293,2.715,0.334,5.579,0.374,8.313c0.051,3.396-9.289-0.034-10.991-0.312
				c-3.299-0.538-6.578-1.011-9.82-1.838c-1.714-0.438-5.281-0.91-6.486-2.286C378.461,453.269,374.938,456.819,377.053,459.234
				L377.053,459.234z"/>
		</g>
	</g>
	<g clip-path="url(#SVGID_2_)">
		<g>
			<path fill="#BF4141" d="M440.77,448.286c3.147,6.391,0.422,14.016,2.029,20.791c1.231,5.192,7.077,5.336,9.55,1.009
				c2.808-4.915,1.306-12.73,0.37-17.991c-1.774-9.967-7.722-18.653-14.987-25.477c-2.348-2.205-5.89,1.324-3.535,3.535
				c9.706,9.115,15.02,20.739,14.448,34.079c-0.048,1.11-0.262,2.113-0.562,3.172c-0.351,1.231-0.178,1.195-0.462,0.344
				c-0.651-1.956-0.485-4.275-0.449-6.307c0.098-5.456,0.392-10.651-2.085-15.679C443.661,442.87,439.35,445.405,440.77,448.286
				L440.77,448.286z"/>
		</g>
	</g>
	<g clip-path="url(#SVGID_2_)">
		<g>
			<path fill="#BF4141" d="M263.663,448.885c-0.834-5.954-1.864-11.895-2.104-17.902c-0.271-6.778-0.138-14.49-2.926-20.795
				c-2.446-5.532-4.461-11.56-10.353-14.154c-4.634-2.041-9.813-1.116-14.229,0.975c-2.913,1.379-0.374,5.688,2.523,4.316
				c4.699-2.224,10.49-2.078,13.604,2.594c3.055,4.582,4.954,10.635,5.571,16c0.7,6.085,0.502,12.252,1.312,18.313
				c0.535,3.997,1.219,7.985,1.779,11.983C259.287,453.396,264.104,452.037,263.663,448.885L263.663,448.885z"/>
		</g>
	</g>
	<g clip-path="url(#SVGID_2_)">
		<g>
			<path fill="#BF4141" d="M340.156,447.686c-0.177-0.07-0.354-0.141-0.529-0.211c0.582,0.582,1.164,1.164,1.746,1.746
				c-0.201-0.789,0.354-2.047,0.532-2.834c0.337-1.49,0.201-3.214-0.095-4.699c-0.77-3.862-1.885-7.641-2.669-11.509
				c-1.77-8.729-3.812-16.996-3.666-25.999c0.099-6.013,0.828-11.745-4.045-16.068c-5.057-4.487-10.599-1.767-14.458,2.593
				c-2.129,2.404,1.394,5.954,3.535,3.535c2.909-3.286,7.408-5.203,9.629,0.212c1.138,2.774,0.408,6.821,0.339,9.729
				c-0.164,6.939,0.806,13.806,2.175,20.6c1.282,6.366,3.783,12.784,4.413,19.249c0.32,3.295-2.465,6.788,1.763,8.479
				C341.823,453.705,343.111,448.868,340.156,447.686L340.156,447.686z"/>
		</g>
	</g>
	<g clip-path="url(#SVGID_2_)">
		<g>
			<path fill="#BF4141" d="M403.008,456.329c11.084,2.958,3.374-28.333,2.558-31.587c-2.048-8.165-1.657-20.289-10.128-24.978
				c-6.727-3.724-15.395,2.543-20.609,6.253c-2.604,1.852-0.11,6.19,2.523,4.316c4.139-2.943,9.733-7.461,15.152-6.365
				c6.469,1.307,6.776,15.415,7.82,20.328c1.213,5.703,2.932,11.185,3.334,17.031c0.126,1.834,0.167,3.672,0.154,5.51
				c-0.006,0.92-0.067,1.837-0.139,2.754c-0.05,0.563-0.144,1.118-0.281,1.666c-0.443,0.868-0.129,0.951,0.945,0.249
				C401.218,450.675,399.896,455.498,403.008,456.329L403.008,456.329z"/>
		</g>
	</g>
	<g clip-path="url(#SVGID_2_)">
		<g>
			<path fill="#BF4141" d="M450.758,451.152c-2.331-5.213-2.363-11.528-4.001-16.994c-1.298-4.332-3.973-8.855-7.451-11.774
				c-2.452-2.058-6.009,1.46-3.535,3.535c8.386,7.037,6.593,18.638,10.669,27.757C447.754,456.615,452.062,454.069,450.758,451.152
				L450.758,451.152z"/>
		</g>
	</g>
	<g clip-path="url(#SVGID_2_)">
		<g>
			<path fill="#BF4141" d="M169.052,473.416c7.52,3.895,7.402-7.934,7.211-12.189c-0.205-4.573-0.406-9.159-0.721-13.727
				c-0.296-4.299-0.673-8.6-0.057-12.887c0.502-3.492,1.263-6.896,1.49-10.428c0.366-5.685-2.498-10.439-6.862-13.848
				c-4.701-3.672-11.843-2.424-17.153-0.853c-9.684,2.863-16.139,14.888-12.506,24.34c1.145,2.977,5.98,1.685,4.821-1.33
				c-2.992-7.783,2.515-16.267,10.18-18.534c5.315-1.571,10.268-1.506,14.146,2.723c4.114,4.485,1.958,11.329,1.062,16.601
				c-1.31,7.705-0.124,16.014,0.323,23.772c0.114,1.988,0.281,3.97,0.345,5.962c0.039,1.211,0.011,2.42-0.049,3.63
				c-0.026,0.583-0.097,1.162-0.211,1.734c-0.344,1.953-0.489,0.202,0.503,0.717C168.717,467.619,166.188,471.934,169.052,473.416
				L169.052,473.416z"/>
		</g>
	</g>
	<path clip-path="url(#SVGID_2_)" fill="#444442" d="M574.334,569.438c-44.625,52.537-479.151,50.118-526.51,4.359
		C0.475,528.038-20.459,176.723,43.465,47.281C99.208-15.99,541.723-5.454,569.976,42.926
		C612.938,85.442,618.967,516.901,574.334,569.438z"/>
	<polygon opacity="0.4" clip-path="url(#SVGID_2_)" fill="#232323" points="118.356,516.113 442.224,839.983 811.423,470.784 
		494.793,154.16 	"/>
	<path clip-path="url(#SVGID_2_)" fill="#CE4545" d="M512.983,207.971c-16.993,45.022-9.518,169.977,0,209.629
		c9.519,39.652,34.468,90.649-47.205,84.041c-143.534-45.323-263.448-1.318-287.057,7.364
		c-23.603,8.683-59.488,36.541-82.156-29.082c-41.541-103.396,35.14-296.57,51.625-330.174c16.485-33.597,52.562-60.752,98.2-59.802
		c162.41-7.239,235.736,54.477,241.1,58.541C492.859,152.557,523.692,174.303,512.983,207.971z"/>
	<path clip-path="url(#SVGID_2_)" fill="#F2F6F9" d="M261.818,107.883c0,0-6.618,89.706,5.038,130.945
		c2.5,6.333,2.278,18.252,30.838,20.137c19.599,1.184,17.394-0.467,31.479,0c14.085,0.474,46.818-10.619,45.32-47.211
		c-1.488-36.586-11.173-47.218-10.695-95.05C351.051,106.942,261.818,107.883,261.818,107.883z"/>
	<path clip-path="url(#SVGID_2_)" fill="#F2F6F9" d="M383.86,134.562c0,0,4.724,102.213,12.276,115.2
		c9.91,13.451,19.114,12.04,19.114,12.04s12.757-0.781,27.856-2.4c17.941-0.666,17.704-19.794,17.704-19.794
		s-2.362-56.656-3.06-72.229c-0.711-15.586-4.014-15.343-9.447-20.066c-5.435-4.724-26.205-15.816-46.034-24.319
		C382.446,114.501,383.86,134.562,383.86,134.562z"/>
	<path clip-path="url(#SVGID_2_)" fill="#F2F6F9" d="M473.799,166.431c-0.826,3.424-1.889,55.942,0,63.975
		c1.895,8.027,10.977,24.899,21.244,0c4.25-7.905,2.304-38.974,1.651-47.928c0.474-6.603-13.691-17.698-13.691-17.698
		S475.098,156.637,473.799,166.431z"/>
	<path clip-path="url(#SVGID_2_)" fill="#F2F6F9" d="M147.876,498.492c6.218-2.758,11.646-3.859,22.662-5.351
		s11.64-16.994,11.64-16.994s-3.773-31.158-2.512-50.674c1.254-19.522-11.323-22.313-19.833-23.606
		c-15.186-1.581-35.175,10.453-50.041,19.516c-13.694,9.198-7.735,31.383-4.72,36.51c3.008,5.121,19.81,34.622,22.031,37.527
		C129.756,498.224,134.502,504.164,147.876,498.492z"/>
	<path clip-path="url(#SVGID_2_)" fill="#F2F6F9" d="M230.97,477.408c-25.497,3.777-24.793-4.819-27.699-14.478
		c-1.498-8.577-9.601-38.085-5.351-57.29c3.149-9.438,4.724-13.534,12.904-14.948c8.18-1.422,9.917-0.014,20.146-1.889
		c14.315-3.783,20.3,2.521,20.3,2.521s14.325,11.01,16.834,66.254c-0.621,10.229-12.27,14.005-12.27,14.005
		S247.926,474.406,230.97,477.408z"/>
	<path clip-path="url(#SVGID_2_)" fill="#F2F6F9" d="M337.67,397.617c0.157-17.781-9.457-18.024-11.803-17.94
		c-2.34,0.083-25.497,0.947-25.497,0.947s-17.622-0.788-17.154,15.732c0.48,16.521,5.979,54.918,5.979,54.918
		s1.578,15.272,12.904,13.857c11.335-1.414,28.646-0.63,28.646-0.63s17.941-0.634,17.004-16.684
		C346.48,435.542,337.513,415.398,337.67,397.617z"/>
	<path clip-path="url(#SVGID_2_)" fill="#F2F6F9" d="M358.29,417.133c-5.985-24.393,3.776-25.02,9.748-24.239
		c5.981,0.787,6.142,1.885,19.049,0c12.911-1.888,17.148,12.897,17.148,12.897s6.619,26.915,10.702,46.591
		c4.097,19.676-10.695,16.373-10.695,16.373s-13.847-4.884-21.409-2.048c-17.308,3.616-18.564-11.803-17.781-15.739
		C365.843,447.031,363.641,432.594,358.29,417.133z"/>
	<path clip-path="url(#SVGID_2_)" fill="#F2F6F9" d="M428.161,426.414c1.255-27.229,9.909-13.371,14.479-4.717
		c4.563,8.647,7.553,13.531,9.755,38.244c2.202,24.706-11.105,16.404-13.691,11.643S426.907,453.637,428.161,426.414z"/>
	<path clip-path="url(#SVGID_2_)" fill="#F2F6F9" d="M151.649,179.341c1.735,16.514,16.523,36.033,28.957,46.264
		c28.33,27.222,61.069-8.974,62.32-32.106c1.258-7.239-1.571-65.78-1.571-65.78s1.571-18.104-10.389-18.254
		C207.051,107.573,158.261,156.362,151.649,179.341z"/>
</g>
</svg>
