<?xml version="1.0" encoding="utf-8"?>
<!-- Generator: Adobe Illustrator 16.0.0, SVG Export Plug-In . SVG Version: 6.00 Build 0)  -->
<!DOCTYPE svg PUBLIC "-//W3C//DTD SVG 1.1//EN" "http://www.w3.org/Graphics/SVG/1.1/DTD/svg11.dtd">
<svg version="1.1" id="Layer_1" xmlns="http://www.w3.org/2000/svg" xmlns:xlink="http://www.w3.org/1999/xlink" x="0px" y="0px"
	 width="612px" height="612px" viewBox="0 0 612 612" enable-background="new 0 0 612 612" xml:space="preserve">
<g>
	<defs>
		<path id="SVGID_1_" d="M576.737,569.141c-44.572,52.473-478.584,50.062-525.875,4.356C3.562,527.79-17.349,176.898,46.511,47.619
			c55.664-63.201,497.654-52.675,525.869-4.35C615.282,85.734,621.311,516.67,576.737,569.141z"/>
	</defs>
	<clipPath id="SVGID_2_">
		<use xlink:href="#SVGID_1_"  overflow="visible"/>
	</clipPath>
	<path clip-path="url(#SVGID_2_)" fill="#93344F" d="M387.58,149.22c39.177-8.794,52.426-21.222,66.148-27.842
		c-0.07,6.671,2.238,3.408,2.238,3.408s-61.568,32.076-68.387,24.85"/>
	<path clip-path="url(#SVGID_2_)" fill="#7D9979" d="M576.737,569.141c-44.572,52.473-478.584,50.062-525.875,4.356
		C3.562,527.79-17.349,176.898,46.511,47.619c55.664-63.201,497.654-52.675,525.869-4.35
		C615.282,85.734,621.311,516.67,576.737,569.141z"/>
	<path opacity="0.1" clip-path="url(#SVGID_2_)" fill="#B5334C" d="M234.728,150.438c0,0,89.773,113.636,90.592,114.454
		s23.459-106.249,23.459-106.249L234.728,150.438z"/>
	<g clip-path="url(#SVGID_2_)">
		<polygon opacity="0.1" fill="#B5334C" points="128.987,460.792 454.179,785.979 786.666,453.491 453.729,121.378 317.708,317.02 
			193.789,404.463 142.869,432.237 		"/>
	</g>
	<path clip-path="url(#SVGID_2_)" fill="#A0354F" d="M269.639,332.785c11.181,16.226,28.916-133.665-34.912-182.348
		c105.011-70.24,226.938-35.053,219.03-28.116c-8.184,81.44-3.149,132.99-3.149,132.99"/>
	<path clip-path="url(#SVGID_2_)" fill="#93344F" d="M292.794,268.292c0,0-1.125-113.949-18.961-138.709
		c9.966-5.07,13.406-6.419,23.389-9.27c31.552,24.171,108.223,30.68,108.223,30.68L292.794,268.292z"/>
	<path clip-path="url(#SVGID_2_)" fill="#1C6BA0" d="M209.711,368.688c0,0,35.008-7.934,40.94-3.295
		c5.933,4.638-16.366-6.685-16.366-6.685L209.711,368.688"/>
	<path clip-path="url(#SVGID_2_)" fill="#B5334C" d="M270.157,330.201c31.089-33.46,20.457-159.022-6.271-210.847
		c134.195,58.369,188.753,4.597,189.843,2.023c6.064-0.182-1.685,22.366-3.676,45.825c-0.809,49.088-0.067,59.87,2.963,135.873
		c4.556,47.855,18.712,92.314,17.965,116.596c-8.874,19.396-61.447,33.416-93.22,24.549
		c-72.973,34.919-203.757,41.733-253.626,7.212c-4.545-35.849,14.001-56.307,23.545-65.278
		c19.371-11.764,29.813-10.131,45.825-14.219C242.335,364.027,258.094,344.95,270.157,330.201z"/>
	<path clip-path="url(#SVGID_2_)" fill="#1C75BC" d="M124.135,451.433c97.384,43.613,251.577,3.97,252.396-12.665
		c28.027,12.205,76.512,0.34,94.647-19.914c7.646,31.301-80.327,49.296-91.374,27.005c-0.742,1.812-1.857,3.563-3.312,5.254
		C343.099,489.867,130.214,496.023,124.135,451.433z"/>
	<path clip-path="url(#SVGID_2_)" fill="#A0354F" d="M251.656,367.786c0,0,35.679,35.52,32.374,51.067
		c17.766-16.641,56.303-41.732,74.312-36.823c-6.904-4.699-60.448-26.729-60.448-26.729L251.656,367.786z"/>
	<path clip-path="url(#SVGID_2_)" fill="#1C75BC" d="M209.711,368.688c57.306-23.206,68.437,39.611,76.62,38.793
		c14.569-5.466,46.644-31.095,72.011-33.142c-45.824-12.28-57.959-33.643-72.011-47.461c-15.65-17.85-42.366,24.05-42.366,24.05
		S238.007,353.722,209.711,368.688z"/>
</g>
</svg>
