<?xml version="1.0" encoding="utf-8"?>
<!-- Generator: Adobe Illustrator 16.0.0, SVG Export Plug-In . SVG Version: 6.00 Build 0)  -->
<!DOCTYPE svg PUBLIC "-//W3C//DTD SVG 1.1//EN" "http://www.w3.org/Graphics/SVG/1.1/DTD/svg11.dtd">
<svg version="1.1" id="Layer_1" xmlns="http://www.w3.org/2000/svg" xmlns:xlink="http://www.w3.org/1999/xlink" x="0px" y="0px"
	 width="612px" height="612px" viewBox="0 0 612 612" enable-background="new 0 0 612 612" xml:space="preserve">
<path fill="#FFED9F" d="M576.014,567.607c-44.254,52.732-478.188,52.925-525.75,7.511s-70.569-396.108-7.5-525.747
	c55.273-63.522,497.236-55.647,525.74-7.504C611.654,84.07,620.264,514.882,576.014,567.607z"/>
<g>
	<g>
		<path fill="#E5D48C" d="M163.045,303.785c-1.586,10.571,13.119,12.429,20.57,13.014c10.777,0.846,20.723-0.892,25.771-11.521
			c4.76-10.022,4.181-25.667-5.557-32.572c-9.67-6.857-28.366-7.37-36.867,1.613c-2.214,2.34,1.315,5.881,3.535,3.535
			c6.885-7.275,20.75-5.948,28.963-1.917c8.929,4.383,8.809,17.247,6.167,25.367c-2.847,8.75-9.782,10.639-18.007,10.649
			c-3.55,0.004-20.704-0.51-19.754-6.839C168.339,301.961,163.522,300.605,163.045,303.785L163.045,303.785z"/>
	</g>
</g>
<g>
	<g>
		<path fill="#E5D48C" d="M410.128,302.696c-5.888,17.937,33.222,13.118,40.721,6.794c11.229-9.468,16.118-24.028,14.126-38.441
			c-1.085-7.844-3.853-15.058-7.575-22.011c-4.325-8.079-10.648-14.846-14.341-23.303c-1.288-2.949-5.595-0.401-4.318,2.523
			c5.358,12.27,15.059,21.759,19.326,34.667c4.006,12.112,3.008,25.343-4.197,36.013c-5.569,8.249-13.007,10.456-22.481,11.151
			c-3.795,0.278-18.755,0.993-16.438-6.065C415.958,300.953,411.129,299.647,410.128,302.696L410.128,302.696z"/>
	</g>
</g>
<g>
	<g>
		<path fill="#E5D48C" d="M205.553,194.943c-5.599,1.511-9.996,6.128-13.871,10.188c-5.129,5.374-10.232,11.152-14.805,17
			c-9.705,12.412-13.331,27.752-6.831,42.463c0.52,1.177,2.243,0.159,1.727-1.01c-6.988-15.816-1.079-31.377,9.621-43.82
			c3.53-4.105,7.12-8.205,10.764-12.21c3.796-4.172,8.302-9.164,13.927-10.682C207.328,196.536,206.799,194.606,205.553,194.943
			L205.553,194.943z"/>
	</g>
</g>
<g>
	<g>
		<path fill="#E5D48C" d="M424.032,203.316c2.938,2.122,5.184,4.68,7.436,7.482c2.342,2.914,5.996,5.159,8.93,7.43
			c6.213,4.808,10.936,10.401,14.839,17.224c3.537,6.182,5.533,13.225,4.553,20.35c-1.1,7.992-6.674,14.445-12.505,19.577
			c-0.97,0.854,0.45,2.263,1.414,1.414c11.677-10.277,16.573-23.294,10.378-38.068c-3.187-7.599-8.39-14.545-14.662-19.839
			c-3.391-2.862-7.028-5.397-10.34-8.358c-3.205-2.865-5.483-6.375-9.032-8.939C423.994,200.833,422.997,202.568,424.032,203.316
			L424.032,203.316z"/>
	</g>
</g>
<g>
	<g>
		<path fill="#E5D48C" d="M449.854,231.321c3.472,5.796,7.858,11.52,9.855,18.046c2.537,8.289-3.734,16.207-8.606,22.196
			c-0.807,0.991,0.6,2.415,1.414,1.414c4.896-6.02,10.28-12.936,9.688-21.132c-0.564-7.81-6.773-15.106-10.624-21.534
			C450.92,229.207,449.189,230.212,449.854,231.321L449.854,231.321z"/>
	</g>
</g>
<g>
	<g>
		<path fill="#E5D48C" d="M457.343,241.452c0.034-0.273,0.067-0.545,0.102-0.818c-0.502,0.288-1.003,0.576-1.505,0.863
			c2.489,1.457,4.086,7.579,4.882,10.162c1.337,4.342,1.837,9.155,0.182,13.458c-0.464,1.206,1.47,1.722,1.928,0.531
			c1.819-4.729,1.088-9.742-0.181-14.521c-0.951-3.582-2.392-9.362-5.801-11.357c-0.717-0.42-1.415,0.14-1.505,0.863
			c-0.034,0.273-0.067,0.545-0.102,0.818C455.185,242.73,457.187,242.715,457.343,241.452L457.343,241.452z"/>
	</g>
</g>
<g>
	<path fill="#444442" d="M400.379,181.229c20.524,11.022,36.181,23.713,46.971,38.073c10.782,14.362,16.241,31.534,16.362,51.524
		c0.186,31.135-12.316,46.782-37.491,46.929c-19.201,0.118-28.862-10.316-28.986-31.288c-0.096-16.396,8.977-24.641,27.232-24.75
		c6.925-0.042,10.364-3.822,10.319-11.371c-0.02-3.272-0.274-6.794-0.767-10.559c-0.499-3.765-2.018-8.022-4.561-12.758
		c-2.551-4.736-6.6-9.958-12.139-15.663c-5.538-5.698-13.525-11.965-23.956-18.789L400.379,181.229z"/>
</g>
<g>
	<path fill="#444442" d="M211.43,192.024c-10.227,7.114-18.025,13.608-23.407,19.463c-5.369,5.861-9.262,11.198-11.681,15.999
		c-2.41,4.813-3.81,9.108-4.193,12.883c-0.39,3.781-0.543,7.309-0.473,10.582c0.173,7.542,3.727,11.23,10.639,11.071
		c18.255-0.409,27.568,7.574,27.939,23.966c0.466,20.968-8.891,31.668-28.086,32.103c-25.172,0.566-38.116-14.714-38.819-45.842
		c-0.451-19.987,4.519-37.309,14.886-51.972c10.373-14.656,25.659-27.792,45.863-39.399L211.43,192.024z"/>
</g>
</svg>
