<?xml version="1.0" encoding="utf-8"?>
<!-- Generator: Adobe Illustrator 16.0.0, SVG Export Plug-In . SVG Version: 6.00 Build 0)  -->
<!DOCTYPE svg PUBLIC "-//W3C//DTD SVG 1.1//EN" "http://www.w3.org/Graphics/SVG/1.1/DTD/svg11.dtd">
<svg version="1.1" xmlns="http://www.w3.org/2000/svg" xmlns:xlink="http://www.w3.org/1999/xlink" x="0px" y="0px" width="612px"
	 height="612px" viewBox="0 0 612 612" enable-background="new 0 0 612 612" xml:space="preserve">
<g id="Layer_1" display="none">
	<g display="inline">
		<path fill="#C5C5C5" d="M574.334,569.438c-44.625,52.537-479.151,50.118-526.51,4.359C0.475,528.038-20.459,176.723,43.465,47.281
			C99.208-15.99,541.723-5.454,569.976,42.926C612.938,85.442,618.967,516.901,574.334,569.438z"/>
		<path fill="#F9F9F9" d="M167.366,428.886c-6.396,7.53-68.675,7.185-75.463,0.625c-6.786-6.559-9.787-56.911-0.625-75.464
			c7.989-9.066,71.414-7.559,75.462-0.624C172.898,359.517,173.763,421.356,167.366,428.886z"/>
		<path fill="#F9F9F9" d="M279.033,428.886c-6.396,7.53-68.675,7.185-75.463,0.625c-6.786-6.559-9.786-56.911-0.624-75.464
			c7.989-9.066,71.413-7.559,75.463-0.624C284.566,359.517,285.431,421.356,279.033,428.886z"/>
		<path fill="#F9F9F9" d="M399.153,428.886c-6.396,7.53-68.675,7.185-75.464,0.625c-6.785-6.559-9.787-56.911-0.625-75.464
			c7.99-9.066,71.414-7.559,75.464-0.624C404.686,359.517,405.55,421.356,399.153,428.886z"/>
		<path fill="#F9F9F9" d="M518.56,428.886c-6.396,7.53-68.675,7.185-75.463,0.625c-6.786-6.559-9.786-56.911-0.625-75.464
			c7.989-9.066,71.414-7.559,75.463-0.624C524.092,359.517,524.957,421.356,518.56,428.886z"/>
		<g enable-background="new    ">
			<path fill="#F9F9F9" d="M191.069,212.549h29.593v-64.687c0-13.468,4.553-20.298,9.864-20.298c5.501,0,10.054,7.398,10.054,10.055
				c0,2.846-5.122-1.707-5.122,14.227v118.94c0,3.226-2.466,4.363-5.312,4.363c-4.363,0-9.484-2.655-9.484-5.501v-43.82h-29.593
				v44.958c0,3.226-2.466,4.363-5.312,4.363c-4.363,0-9.485-2.655-9.485-5.501v-43.82h-13.468c-3.984,0-6.829-5.501-6.829-9.484
				c0-2.087,0.949-3.795,2.845-3.795h17.452v-61.271c-23.333,0-40.216,16.124-40.216,41.543c0,15.936,7.588,26.179,10.054,26.179
				c1.138,0,1.328-0.948,2.276-0.948s1.138,1.707,1.138,3.035c0,7.967-7.019,14.796-12.52,10.812
				c-6.639-4.742-15.935-17.642-15.935-38.509c0-40.216,33.577-56.34,62.411-56.34c3.983,0,7.588,3.415,7.588,7.968V212.549z"/>
			<path fill="#F9F9F9" d="M333.148,244.039c-2.275,10.244-10.054,18.78-22.953,18.78c-3.414,0-6.449-0.38-9.295-1.328
				c-4.742,8.157-11.951,13.658-22.764,13.658c-19.159,0-27.696-16.313-27.696-35.284c0-27.885,15.176-44.768,19.349-44.768
				c4.932,0,8.726,10.054,3.794,13.278c-3.035,4.553-8.726,11.571-8.726,30.352c0,15.935,6.26,23.901,13.658,23.901
				c5.312,0,8.726-2.845,11.192-7.208c-8.916-7.588-13.658-20.108-13.658-33.767c0-11.95,5.122-22.194,15.366-22.194
				c8.916,0,16.125,13.469,16.125,31.869c0,7.019-0.759,14.038-2.656,20.487c1.328,0.38,2.466,0.38,3.794,0.38
				c8.157,0,12.521-6.261,13.658-13.658C323.095,234.175,335.615,233.416,333.148,244.039z M293.312,243.091
				c0.379-3.035,0.569-5.881,0.569-8.727c0-12.899-0.569-22.384-4.553-22.384c-2.087,0-3.225,3.035-3.225,8.916
				C286.104,229.433,288.949,237.399,293.312,243.091z"/>
			<path fill="#F9F9F9" d="M408.457,275.149c-10.055,0-15.935-8.157-15.935-17.831V218.81c0-5.881-0.38-10.813-3.604-10.813
				c-5.122,0-15.935,16.314-17.072,31.301v27.695c0,3.604,0.189,8.157-5.312,8.157c-3.793,0-9.105-1.328-9.105-8.347V218.81
				c0-5.881-0.379-10.813-3.604-10.813c-5.122,0-15.935,16.314-17.073,31.301v27.695c0,3.604,0.19,8.157-5.312,8.157
				c-3.794,0-9.105-1.328-9.105-8.347v-60.134c0-3.604-0.759-4.743-0.759-6.07c0-1.897,2.276-3.226,4.933-3.226
				c6.26,0,10.243,3.795,10.243,8.348v7.967c4.933-10.244,11.571-18.211,20.108-18.211c11.382,0,14.606,9.295,14.986,17.832
				c4.742-10.055,11.381-17.832,19.918-17.832c12.33,0,15.176,10.434,15.176,19.159v39.268c0,1.707,0,8.726,4.932,8.726
				c7.588,0,11.003-12.141,12.71-20.486c0.759-3.984,2.655-5.691,4.553-5.691c3.035,0,6.64,4.174,6.64,7.777
				c0,0.189,0,0.569-0.189,1.328C432.169,258.076,424.771,275.149,408.457,275.149z"/>
			<path fill="#F9F9F9" d="M440.893,250.868c2.656,6.45,7.777,11.761,17.643,11.761c14.796,0,20.866-12.33,23.143-23.901
				c1.707-8.536,12.33-4.742,11.571,1.897c-1.327,11.571-8.915,34.524-36.801,34.524c-17.263,0-33.577-13.848-33.577-37.56
				c0-24.092,14.418-42.113,29.024-42.113c10.623,0,17.072,7.777,17.072,19.159C468.968,228.674,459.293,245.367,440.893,250.868z
				 M438.616,240.435c9.485-4.362,15.556-14.228,15.556-25.608c0-4.174-1.518-6.64-3.984-6.64c-9.295,0-12.141,20.866-11.761,28.834
				C438.427,238.158,438.616,239.297,438.616,240.435z"/>
		</g>
	</g>
</g>
<g id="Layer_2">
	<g>
		<circle fill="none" stroke="#444442" stroke-width="14" stroke-miterlimit="10" cx="306" cy="383" r="191.72"/>
		<polygon fill="#444442" points="424.295,395.236 232.576,395.236 289.684,452.346 257.05,452.346 187.705,383 257.05,313.654 
			289.684,313.654 232.576,370.763 424.295,370.763 		"/>
	</g>
</g>
</svg>
