<?xml version="1.0" encoding="utf-8"?>
<!-- Generator: Adobe Illustrator 16.0.0, SVG Export Plug-In . SVG Version: 6.00 Build 0)  -->
<!DOCTYPE svg PUBLIC "-//W3C//DTD SVG 1.1//EN" "http://www.w3.org/Graphics/SVG/1.1/DTD/svg11.dtd">
<svg version="1.1" id="Layer_1" xmlns="http://www.w3.org/2000/svg" xmlns:xlink="http://www.w3.org/1999/xlink" x="0px" y="0px"
	 width="1000px" height="1000px" viewBox="0 0 1000 1000" enable-background="new 0 0 1000 1000" xml:space="preserve">
<g>
	<path fill="#618291" d="M938.314,926.916c-72.943,85.881-783.266,81.938-860.672,7.135C0.233,859.24-33.986,284.956,70.525,73.373
		c91.098-103.438,814.482-86.209,860.657-7.12C1001.402,135.752,1011.268,841.041,938.314,926.916z"/>
	<g>
		<defs>
			<path id="SVGID_1_" d="M938.314,926.916c-72.943,85.881-783.266,81.938-860.672,7.135C0.233,859.24-33.986,284.956,70.525,73.373
				c91.098-103.438,814.482-86.209,860.657-7.12C1001.402,135.752,1011.268,841.041,938.314,926.916z"/>
		</defs>
		<clipPath id="SVGID_2_">
			<use xlink:href="#SVGID_1_"  overflow="visible"/>
		</clipPath>
		<polygon opacity="0.55" clip-path="url(#SVGID_2_)" fill="#474746" points="213.415,827.957 1030.607,1663.017 1719.252,1107.784 
			801.23,189.762 		"/>
	</g>
	<path fill="#EDEDEB" d="M85.361,512.624c0,243.591,190.604,441.058,425.723,441.058c235.123,0.002,425.726-197.468,425.726-441.058
		c0-243.593-190.603-441.061-425.726-441.061C275.965,71.561,85.361,269.032,85.361,512.624z"/>
	<g>
		<path fill="#474746" d="M843.99,521.343c2.346,47.91-13.578,83.946-51.464,109.289c-32.119,21.479-60.73,21.57-89.062-4.542
			c-46.423-42.788-76.769-97.217-99.783-154.994c-12.854-32.248,23.695-98.383,59.813-117.301
			c39.604-20.734,86.908-13.278,114.667,20.729C813.8,418.182,836.361,468.253,843.99,521.343z"/>
		<g>
			<path fill="#474746" d="M161.336,542.699c3.377-57.333,29.873-118.301,79.963-166.381
				c41.246-39.565,115.063-19.038,143.357,32.938c25.068,46.08,23.919,87.561-7.73,129.564
				c-16.829,22.345-29.311,47.995-46.354,70.156c-23.309,30.315-49.371,59.384-94.033,46.7
				C195.007,643.887,164.685,601.881,161.336,542.699z"/>
			<path fill="#474746" d="M147.049,534.039c3.374-57.331,29.871-118.3,79.963-166.376c41.246-39.568,115.06-19.041,143.354,32.935
				c25.07,46.081,23.92,87.563-7.727,129.567c-16.829,22.34-29.311,47.991-46.356,70.154
				c-23.308,30.315-49.371,59.382-94.031,46.704C180.718,635.229,150.397,593.223,147.049,534.039z"/>
		</g>
		<path fill="#474746" d="M479.664,717.029c36.554-2.71,69.716-3.616,102.12,6.501c10.053,3.13,20.543,6.05,20.047,19.661
			c-0.52,13.708-8.689,22.163-21.251,24.933c-32.701,7.211-62.18,18.785-79.749,50.025c-4.557,8.098-9.507,4.438-13.602-1.045
			c-19.237-25.771-46.681-34.501-77.046-37.669c-14.991-1.575-28.06-7.409-29.551-24.424c-1.421-16.107,12.766-20.204,24.042-24.559
			C429.751,720.736,456.185,717.484,479.664,717.029z"/>
	</g>
</g>
</svg>
