<?xml version="1.0" encoding="utf-8"?>
<!-- Generator: Adobe Illustrator 16.0.0, SVG Export Plug-In . SVG Version: 6.00 Build 0)  -->
<!DOCTYPE svg PUBLIC "-//W3C//DTD SVG 1.1//EN" "http://www.w3.org/Graphics/SVG/1.1/DTD/svg11.dtd">
<svg version="1.1" id="Layer_1" xmlns="http://www.w3.org/2000/svg" xmlns:xlink="http://www.w3.org/1999/xlink" x="0px" y="0px"
	 width="612px" height="612px" viewBox="0 0 612 612" enable-background="new 0 0 612 612" xml:space="preserve">
<path fill="#F2F6F9" d="M581.011,574c-45.231,53.254-485.695,50.808-533.694,4.423c-48.001-46.388-69.22-402.496-4.412-533.697
	c56.488-64.141,505.051-53.458,533.683-4.415C620.13,83.407,626.248,520.749,581.011,574z"/>
<g>
	<path fill-rule="evenodd" clip-rule="evenodd" fill="#444442" d="M99.215,335.75c2.093-35.551,18.523-73.357,49.585-103.17
		c25.576-24.534,71.349-11.805,88.893,20.425c15.545,28.573,14.832,54.295-4.792,80.342c-10.436,13.854-18.176,29.76-28.745,43.502
		c-14.452,18.799-30.614,36.823-58.308,28.959C120.094,398.496,101.291,372.449,99.215,335.75z"/>
	<path fill-rule="evenodd" clip-rule="evenodd" fill="#444442" d="M522.521,322.508c1.455,29.709-8.419,52.054-31.912,67.768
		c-19.918,13.32-37.657,13.375-55.226-2.816c-28.788-26.532-47.604-60.283-61.874-96.11c-7.971-19.996,14.692-61.007,37.089-72.737
		c24.558-12.856,53.89-8.233,71.103,12.855C503.8,258.539,517.791,289.588,522.521,322.508z"/>
	<path fill-rule="evenodd" clip-rule="evenodd" fill="#444442" d="M90.355,330.381c2.092-35.551,18.523-73.357,49.584-103.169
		c25.577-24.535,71.349-11.806,88.893,20.424c15.546,28.573,14.833,54.295-4.791,80.342c-10.436,13.854-18.176,29.76-28.745,43.502
		c-14.452,18.799-30.614,36.822-58.308,28.96C111.234,393.127,92.431,367.08,90.355,330.381z"/>
	<path fill-rule="evenodd" clip-rule="evenodd" fill="#444442" d="M296.607,443.851c22.666-1.681,43.229-2.242,63.322,4.032
		c6.235,1.939,12.74,3.75,12.432,12.19c-0.321,8.5-5.388,13.743-13.177,15.461c-20.278,4.471-38.556,11.649-49.452,31.02
		c-2.826,5.022-5.895,2.752-8.434-0.648c-11.929-15.98-28.947-21.392-47.775-23.357c-9.297-0.977-17.4-4.596-18.325-15.146
		c-0.882-9.988,7.916-12.527,14.909-15.228C265.656,446.15,282.047,444.133,296.607,443.851z"/>
</g>
</svg>
