<?xml version="1.0" encoding="utf-8"?>
<!-- Generator: Adobe Illustrator 16.0.0, SVG Export Plug-In . SVG Version: 6.00 Build 0)  -->
<!DOCTYPE svg PUBLIC "-//W3C//DTD SVG 1.1//EN" "http://www.w3.org/Graphics/SVG/1.1/DTD/svg11.dtd">
<svg version="1.1" id="Layer_1" xmlns="http://www.w3.org/2000/svg" xmlns:xlink="http://www.w3.org/1999/xlink" x="0px" y="0px"
	 width="612px" height="612px" viewBox="0 0 612 612" enable-background="new 0 0 612 612" xml:space="preserve">
<g>
	<g>
		<defs>
			<path id="SVGID_1_" d="M576.402,572.799c-44.875,52.824-481.806,50.404-529.417,4.383c-47.62-46.01-68.669-399.267-4.385-529.417
				c56.045-63.627,501.009-53.03,529.417-4.381C615.206,86.136,621.274,519.971,576.402,572.799z"/>
		</defs>
		<clipPath id="SVGID_2_">
			<use xlink:href="#SVGID_1_"  overflow="visible"/>
		</clipPath>
		<path clip-path="url(#SVGID_2_)" fill="#EFD5EC" d="M576.402,572.799c-44.875,52.824-481.806,50.404-529.417,4.383
			c-47.62-46.01-68.669-399.267-4.385-529.417c56.045-63.627,501.009-53.03,529.417-4.381
			C615.206,86.136,621.274,519.971,576.402,572.799z"/>
	</g>
	<g>
		<defs>
			<path id="SVGID_3_" d="M576.402,572.799c-44.875,52.824-481.806,50.404-529.417,4.383c-47.62-46.01-68.669-399.267-4.385-529.417
				c56.045-63.627,501.009-53.03,529.417-4.381C615.206,86.136,621.274,519.971,576.402,572.799z"/>
		</defs>
		<clipPath id="SVGID_4_">
			<use xlink:href="#SVGID_3_"  overflow="visible"/>
		</clipPath>
		<polygon opacity="0.7" clip-path="url(#SVGID_4_)" fill="#EABFDE" enable-background="new    " points="163.803,489.281 
			456.814,782.292 802.282,436.822 473.738,108.276 		"/>
	</g>
	<g>
		<defs>
			<path id="SVGID_5_" d="M576.402,572.799c-44.875,52.824-481.806,50.404-529.417,4.383c-47.62-46.01-68.669-399.267-4.385-529.417
				c56.045-63.627,501.009-53.03,529.417-4.381C615.206,86.136,621.274,519.971,576.402,572.799z"/>
		</defs>
		<clipPath id="SVGID_6_">
			<use xlink:href="#SVGID_5_"  overflow="visible"/>
		</clipPath>
		<path clip-path="url(#SVGID_6_)" fill="#DAB96A" d="M546.323,317.881C546.32,444.599,443.6,547.319,316.885,547.319
			c-126.717,0-229.443-102.722-229.443-229.442c0-126.717,102.723-229.439,229.443-229.442
			C443.598,88.438,546.326,191.16,546.323,317.881z"/>
	</g>
	<g>
		<defs>
			<path id="SVGID_7_" d="M576.402,572.799c-44.875,52.824-481.806,50.404-529.417,4.383c-47.62-46.01-68.669-399.267-4.385-529.417
				c56.045-63.627,501.009-53.03,529.417-4.381C615.206,86.136,621.274,519.971,576.402,572.799z"/>
		</defs>
		<clipPath id="SVGID_8_">
			<use xlink:href="#SVGID_7_"  overflow="visible"/>
		</clipPath>
		<g clip-path="url(#SVGID_8_)">
			<g>
				<path fill="#BC9F64" d="M94.383,356.645c-3.851,10.674,9.145,15.062,16.891,16.696c11.836,2.497,23.257,5.783,34.705,9.759
					c27.531,9.562,52.374,28.577,82.85,25.412c14.421-1.497,28.389-6.685,42.971-6.561c13.624,0.114,26.759,6.183,39.615,10.012
					c14.608,4.352,29.127,4.628,44.143,2.552c15.317-2.118,29.964-8.316,45.339-9.656c10.812-0.942,21.726,0.267,32.542,0.591
					c5.563,0.167,11.114-0.012,16.651-0.591c5.862-0.613,11.344-2.675,16.996-4.205c10.307-2.794,21.441-1.11,31.94-3.538
					c10.886-2.518,20.956-7.729,31.731-10.647c3.464-0.938,5.166-3.875,5.506-7.231c0.545-5.393,1.896-10.62,2.061-16.063
					c0.292-9.679-14.709-9.649-15,0c-0.163,5.409-1.517,10.685-2.061,16.063c1.835-2.411,3.672-4.821,5.506-7.232
					c-14.098,3.818-27.139,11.232-41.938,12.126c-7.324,0.44-14.545,0.343-21.732,2.06c-7.689,1.838-14.327,4.047-22.338,4.289
					c-15.178,0.457-30.236-2.006-45.389-0.017c-15.404,2.022-30.039,7.896-45.521,9.81c-14.875,1.839-28.236-0.647-42.33-5.242
					c-13.291-4.33-26.64-8.758-40.818-7.953c-14.601,0.826-28.554,5.994-43.14,6.872c-14.598,0.877-28.126-5.237-40.997-11.388
					c-15.806-7.552-31.674-14.018-48.454-19.125c-5.57-1.697-11.144-3.101-16.859-4.166c-2.365-0.44-4.709-0.959-7.025-1.615
					c-1.103-0.312-1.684-0.519-2.476-0.922c-0.811-0.504-0.888-0.539-0.231-0.104c0.248,4.794,0.69,6.129,1.328,4.007
					C112.138,351.512,97.64,347.618,94.383,356.645L94.383,356.645z"/>
			</g>
		</g>
	</g>
	<g>
		<defs>
			<path id="SVGID_9_" d="M576.402,572.799c-44.875,52.824-481.806,50.404-529.417,4.383c-47.62-46.01-68.669-399.267-4.385-529.417
				c56.045-63.627,501.009-53.03,529.417-4.381C615.206,86.136,621.274,519.971,576.402,572.799z"/>
		</defs>
		<clipPath id="SVGID_10_">
			<use xlink:href="#SVGID_9_"  overflow="visible"/>
		</clipPath>
		<path clip-path="url(#SVGID_10_)" fill="#FFFFFF" d="M94.001,341.873c0,0,0.892-5.66-12.93,9.564
			c-11.584,12.903,4.615,14.357,11.102,13.914c6.488-0.438,37.539,3.682,51.103,11.377c13.561,7.692,37.896,19.807,58.395,23.553
			c20.498,3.745,38.109,2.071,58.587-1.889c23.382-5.521,54.018,23.392,104.093,7.749c45.589-14.544,62.387-2.303,93.442-7.413
			c32.979-6.92,23.215,2.177,50.91-9.299c14.415-7.842,11.168-6.389,28.111-11.07c16.952-4.684,18.188-7.994,14.525-16.077
			c-3.679-8.078-12.029-11.334-12.029-11.334s-215.317-8.181-229.83-7.519C294.967,344.094,94.001,341.873,94.001,341.873z"/>
	</g>
	<g>
		<defs>
			<path id="SVGID_11_" d="M576.402,572.799c-44.875,52.824-481.806,50.404-529.417,4.383
				c-47.62-46.01-68.669-399.267-4.385-529.417c56.045-63.627,501.009-53.03,529.417-4.381
				C615.206,86.136,621.274,519.971,576.402,572.799z"/>
		</defs>
		<clipPath id="SVGID_12_">
			<use xlink:href="#SVGID_11_"  overflow="visible"/>
		</clipPath>
		<path clip-path="url(#SVGID_12_)" fill="#DAB96A" d="M78.13,309.384c0,0,0.174,31.562,22.037,42.351
			c59.192,34.852,324.053,31.48,425.524,17.608c16.49-9.204,19.991-23.518,19.991-23.518l0.642-51.097l-71.665-49.566l-107.381-8.37
			c0,0-128.529-1.893-128.808-0.96c-0.269,0.934-116.28,29.658-116.28,29.658l-45.509,31.827L78.13,309.384z"/>
	</g>
	<g>
		<defs>
			<path id="SVGID_13_" d="M576.402,572.799c-44.875,52.824-481.806,50.404-529.417,4.383
				c-47.62-46.01-68.669-399.267-4.385-529.417c56.045-63.627,501.009-53.03,529.417-4.381
				C615.206,86.136,621.274,519.971,576.402,572.799z"/>
		</defs>
		<clipPath id="SVGID_14_">
			<use xlink:href="#SVGID_13_"  overflow="visible"/>
		</clipPath>
		<g clip-path="url(#SVGID_14_)">
			<g>
				<path fill="#BC9F64" d="M82.167,306.267c0.047,0.256,0.094,0.512,0.142,0.77c0-1.329,0-2.658,0-3.987
					c-0.004,0.026-0.008,0.052-0.012,0.078c4.822,0,9.643,0,14.464,0c-0.084-0.31-0.54-2.987-0.413-1.602
					c-0.375-4.069-3.128-7.5-7.5-7.5c-0.184,0-0.368,0-0.551,0c-3.14,0-6.603,2.266-7.232,5.506
					c-4.197,21.608,27.658,21.042,41.189,18.543c13.886-2.563,27.08-10.646,39.607-16.833c5.46-2.697,10.812-5.483,16.629-7.343
					c7.138-2.283,14.629-2.165,22.033-1.781c14.841,0.769,29.01,5.703,43.971,4.955c14.511-0.726,27.649-6.275,40.094-13.415
					c5.434-3.118,10.746-6.401,16.452-9.012c6.207-2.84,12.787-3.233,19.495-3.043c12.937,0.366,25.581,4.415,36.932,10.472
					c16.195,8.643,27.587,22.856,42.256,33.521c7.638,5.553,16.309,9.168,25.73,9.987c9.021,0.786,17.854-3.331,25.062-8.351
					c14.448-10.064,25.296-25.112,42.568-30.831c17.877-5.918,27.491,13.933,41.785,20.504c5.182,2.382,11.051-0.43,11.285-6.476
					c0.348-8.954-2.192-17.512-4.116-26.162c-2.102-9.441-16.562-5.437-14.465,3.987c1.642,7.378,3.878,14.54,3.581,22.174
					c3.762-2.159,7.522-4.317,11.284-6.476c-10.693-4.917-17.557-15.321-28.099-20.581c-12.23-6.102-25.533-2.476-36.947,3.641
					c-10.914,5.849-19.704,14.761-28.935,22.831c-4.114,3.597-8.677,7.201-13.792,9.258c-5.854,2.356-11.449,1.578-17.229-0.554
					c-11.5-4.24-20.311-14.688-29.103-22.73c-9.874-9.032-21.224-16.396-33.562-21.565c-12.409-5.198-25.653-7.824-39.115-7.699
					c-13.943,0.129-25.554,6.485-37.265,13.349c-7.708,4.518-15.522,8.485-24.22,10.691c-9.505,2.41-19.268,1.835-28.789-0.022
					c-18.653-3.637-38.502-6.331-56.617,0.93c-16.961,6.799-32.496,18.161-50.5,22.105c-1.129,0.229-2.264,0.418-3.406,0.568
					c1.028-0.134,1.068-0.148,0.119-0.043c-1.064,0.108-2.133,0.154-3.201,0.199c-2.952,0.124-5.91,0.001-8.85-0.264
					c-2.279-0.205-4.531-0.789-6.69-1.531c0.775,0.267-2.037-1.405-0.905-0.457c-1.038-0.869,0.398,0.39,0.195,1.438
					c-2.411,1.835-4.821,3.67-7.232,5.506c0.184,0,0.368,0,0.551,0c-2.5-2.5-5-5-7.5-7.5c0.173,1.882,0.452,3.763,0.948,5.588
					c1.814,6.675,13.333,7.652,14.464,0c0.263-1.78,0.193-3.078-0.13-4.834C94.88,292.775,80.425,296.813,82.167,306.267
					L82.167,306.267z"/>
			</g>
		</g>
	</g>
	<g>
		<defs>
			<path id="SVGID_15_" d="M576.402,572.799c-44.875,52.824-481.806,50.404-529.417,4.383
				c-47.62-46.01-68.669-399.267-4.385-529.417c56.045-63.627,501.009-53.03,529.417-4.381
				C615.206,86.136,621.274,519.971,576.402,572.799z"/>
		</defs>
		<clipPath id="SVGID_16_">
			<use xlink:href="#SVGID_15_"  overflow="visible"/>
		</clipPath>
		<path clip-path="url(#SVGID_16_)" fill="#633F19" d="M67.709,265.204c0,0,1.969-89.612,71.45-153.04
			C204.437,29.055,388.914,54.2,440.312,84.73c37.104,17.708,56.026,49.927,69.878,74.668
			c13.846,24.744,16.791,46.101,36.532,105.718c19.729,59.625-17.413,30.202-17.413,30.202s-45.855-37.282-71.018,0.331
			c-33.103,47.478-64.86,4.126-64.86,4.126s-62.719-60.1-114.403-22.536c-33.253,21.782-74.472,7.815-74.472,7.815
			s-25.533-9.695-54.675,11.515c-39.888,24.111-60.524,20.229-71.15,8.637C65.702,291.002,67.709,265.2,67.709,265.204z"/>
	</g>
</g>
</svg>
