<?xml version="1.0" encoding="utf-8"?>
<!-- Generator: Adobe Illustrator 16.0.0, SVG Export Plug-In . SVG Version: 6.00 Build 0)  -->
<!DOCTYPE svg PUBLIC "-//W3C//DTD SVG 1.1//EN" "http://www.w3.org/Graphics/SVG/1.1/DTD/svg11.dtd">
<svg version="1.1" id="Layer_1" xmlns="http://www.w3.org/2000/svg" xmlns:xlink="http://www.w3.org/1999/xlink" x="0px" y="0px"
	 width="720px" height="720px" viewBox="0 0 720 720" enable-background="new 0 0 720 720" xml:space="preserve">
<path d="M711.279,638.964L487.9,415.577c29.011-43.247,44.598-94.101,44.598-147.343c0-70.852-27.59-137.462-77.692-187.564
	C404.703,30.575,338.1,2.985,267.249,2.985S129.787,30.575,79.685,80.67C29.59,130.772,2,197.382,2,268.234
	c0,70.851,27.59,137.454,77.692,187.556c50.102,50.102,116.707,77.692,187.564,77.692c53.843,0,105.223-15.952,148.785-45.591
	l223.166,223.149c7.532,7.541,21.384,5.898,30.931-3.648l37.499-37.499C717.184,660.348,718.818,646.496,711.279,638.964z
	 M267.249,461.624c-106.646,0-193.398-86.753-193.398-193.39c0-106.638,86.76-193.398,193.398-193.398
	s193.391,86.76,193.391,193.398C460.64,374.871,373.887,461.624,267.249,461.624z"/>
</svg>
