<?xml version="1.0" encoding="utf-8"?>
<!-- Generator: Adobe Illustrator 16.0.0, SVG Export Plug-In . SVG Version: 6.00 Build 0)  -->
<!DOCTYPE svg PUBLIC "-//W3C//DTD SVG 1.1//EN" "http://www.w3.org/Graphics/SVG/1.1/DTD/svg11.dtd">
<svg version="1.1" xmlns="http://www.w3.org/2000/svg" xmlns:xlink="http://www.w3.org/1999/xlink" x="0px" y="0px" width="612px"
	 height="612px" viewBox="0 0 612 612" enable-background="new 0 0 612 612" xml:space="preserve">
<g id="Layer_1" display="none">
	<rect x="-53.577" y="636.558" display="inline" fill="#A1BEFF" width="1576.947" height="612"/>
</g>
<g id="Layer_5">
	<g id="Layer_10">
	</g>
	<g>
		<defs>
			<path id="SVGID_1_" d="M571.248,565.062c-44.023,51.828-472.691,49.441-519.411,4.3c-46.71-45.142-67.361-391.719-4.3-519.414
				c54.992-62.418,491.539-52.024,519.411-4.297C609.327,87.594,615.275,513.233,571.248,565.062z"/>
		</defs>
		<clipPath id="SVGID_2_">
			<use xlink:href="#SVGID_1_"  overflow="visible"/>
		</clipPath>
		<g clip-path="url(#SVGID_2_)">
			<g>
				<path fill="#BF4141" d="M232.814,138.987c0,3.713,1.097,3.992,3.028,7.173c2.226,3.666,1.775,8.749,1.615,12.842
					c-0.383,9.801,0.347,19.567,0.311,29.368c-0.053,14.259-5.152,29.194-18.478,36.127c-16.385,8.525-30.633-2.757-40.678-14.989
					c-5.464-6.653-8.383-15.628-5.917-24.091c2.018-6.921,9.653-10.953,15.38-14.366c2.767-1.648,0.253-5.972-2.523-4.317
					c-6.387,3.805-13.02,7.829-16.567,14.623c-3.954,7.571-2.19,17.215,1.315,24.547c3.911,8.18,11.595,15.699,18.896,20.885
					c7.377,5.239,16.138,6.471,24.871,4.762c16-3.131,25.35-18.177,27.925-33.226c1.963-11.47,0.137-23.354,0.285-34.913
					c0.059-4.595,0.725-9.282-0.151-13.843c-0.406-2.115-1.047-3.995-1.967-5.933c-0.869-1.832-2.345-2.573-2.345-4.649
					C237.814,135.763,232.814,135.763,232.814,138.987L232.814,138.987z"/>
			</g>
		</g>
		<g clip-path="url(#SVGID_2_)">
			<g>
				<path fill="#BF4141" d="M346.772,143.836c0.562,8.613,7.239,15.634,10.116,23.59c3.577,9.894,5.362,20.727,6.985,31.094
					c1.651,10.542,1.666,21.296-1.966,31.431c-3.26,9.094-10.049,14.822-18.991,17.931c-13.125,4.562-29.613,5.123-43.217,2.372
					c-5.488-1.109-11.803-2.799-15.922-6.813c-5.393-5.256,4.973-11.564,8.563-13.792c2.733-1.696,0.225-6.023-2.523-4.317
					c-5.396,3.349-12.516,8.059-12.557,15.201c-0.033,5.75,6.117,9.353,10.664,11.33c14.605,6.35,31.938,5.577,47.301,3.052
					c8.902-1.463,17.652-4.759,24.124-11.219c7.466-7.453,10.057-19.064,10.567-29.214c0.605-12.038-2.303-24.25-4.791-35.939
					c-1.315-6.176-3.039-12.384-5.663-18.144c-2.468-5.416-7.292-10.445-7.691-16.561
					C351.563,140.636,346.562,140.616,346.772,143.836L346.772,143.836z"/>
			</g>
		</g>
		<g clip-path="url(#SVGID_2_)">
			<g>
				<path fill="#BF4141" d="M281.799,244.202c-2.659,8.705,18.565,12.223,23.514,13.361c13.358,3.073,28.056,3.302,40.874-2.136
					c7.787-3.304,14.011-8.511,18.672-15.567c5.68-8.598,6.649-18.955,6.342-28.982c-0.321-10.466-0.733-20.913-3.835-30.971
					c-3.215-10.427-8.233-20.266-9.527-31.222c-0.373-3.162-5.378-3.198-5,0c2.051,17.361,11.845,32.359,12.669,50
					c0.418,8.952,1.502,17.888-0.169,26.78c-1.678,8.925-7.149,16.784-14.556,21.904c-10.454,7.229-25.67,8.771-37.956,6.632
					c-2.933-0.511-27.031-5.771-26.206-8.472C287.564,242.439,282.738,241.127,281.799,244.202L281.799,244.202z"/>
			</g>
		</g>
		<g clip-path="url(#SVGID_2_)">
			<g>
				<path fill="#BF4141" d="M409.226,256.976c9.123,1.69,18.351,3.167,27.658,2.943c7.602-0.183,18.195-1.999,21.01-10.343
					c1.998-5.927,0.372-12.613-0.944-18.507c-1.96-8.771-2.49-17.575-3.663-26.472c-0.992-7.529-1.025-15.011-1.696-22.544
					c-0.49-5.512-2.528-10.274-7.3-13.298c-2.732-1.731-5.238,2.597-2.523,4.317c4.833,3.063,4.96,8.848,5.094,14.014
					c0.17,6.509,0.817,12.895,1.668,19.35c0.859,6.518,0.992,13.138,2.192,19.6c1.258,6.767,3.855,13.619,2.825,20.592
					c-1.218,8.252-13.79,8.367-19.921,8.317c-7.76-0.062-15.461-1.379-23.069-2.789
					C407.404,251.571,406.059,256.389,409.226,256.976L409.226,256.976z"/>
			</g>
		</g>
		<g clip-path="url(#SVGID_2_)">
			<g>
				<path fill="#BF4141" d="M487.219,194.401c-1.295,2.762-3.322-1.332-1.764,1.679c0.462,0.894,0.812,1.845,1.171,2.783
					c0.525,1.369,1.094,2.807,1.349,4.257c0.635,3.62,0.679,7.407,0.746,11.071c0.068,3.769,0.793,21.971-5.277,22.114
					c0.833,0.833,1.667,1.667,2.5,2.5c-0.327-7.141-0.037-14.275,0-21.418c0.017-3.225-4.983-3.224-5,0
					c-0.037,7.144-0.327,14.277,0,21.418c0.062,1.336,1.091,2.533,2.5,2.5c11.612-0.273,10.433-21.603,10.232-29.087
					c-0.135-5.058-0.487-9.918-2.228-14.684c-0.896-2.449-5.517-12.117-8.546-5.656
					C481.542,194.778,485.852,197.318,487.219,194.401L487.219,194.401z"/>
			</g>
		</g>
		<g clip-path="url(#SVGID_2_)">
			<g>
				<path fill="#BF4141" d="M146.206,486.657c-0.177,0-0.354,0-0.53,0c-3.225,0-3.225,5,0,5c7.998,0,15.56,1.004,23.501-0.966
					c4.701-1.167,10.985-3.708,12.375-8.952c1.938-7.31-1.672-14.276-2.914-21.404c-1.599-9.182-1.619-18.588-2.949-27.813
					c-0.458-3.181-5.276-1.823-4.821,1.33c1.032,7.16,1.357,14.395,2.11,21.586c0.68,6.493,2.52,12.483,3.938,18.808
					c3.573,15.926-22.484,12.412-31.241,12.412c-3.225,0-3.225,5,0,5c0.177,0,0.354,0,0.53,0
					C149.43,491.657,149.43,486.657,146.206,486.657L146.206,486.657z"/>
			</g>
		</g>
		<g clip-path="url(#SVGID_2_)">
			<g>
				<path fill="#BF4141" d="M216.129,460.607c-3.528,16.402,36.084,9.187,43.136,6.586c12.631-4.656,7.532-17.67,5.609-27.826
					c-2.679-14.145-6.307-30.745-20.422-37.84c-2.873-1.444-5.405,2.868-2.523,4.316c10.432,5.244,14.359,16.942,16.834,27.604
					c0.83,3.573,1.235,7.24,2.02,10.826c0.708,3.242,1.772,6.105,1.991,9.463c0.298,4.573-0.814,7.034-4.837,8.636
					c-6.927,2.758-14.867,3.44-22.25,3.522c-2,0.022-15.591,0.021-14.735-3.957C221.627,458.793,216.807,457.456,216.129,460.607
					L216.129,460.607z"/>
			</g>
		</g>
		<g clip-path="url(#SVGID_2_)">
			<g>
				<path fill="#BF4141" d="M302.6,456.701c4.136,0.504,7.94,1.442,12.17,1.688c4.289,0.25,8.535,0.701,12.835,0.731
					c5.739,0.041,11.675-0.878,15.294-5.728c4.586-6.146,0.007-17.149-2.045-23.324c-1.581-4.763-3.854-9.047-5.777-13.657
					c-2.113-5.063-3.184-10.352-5.872-15.2c-1.564-2.819-5.883-0.299-4.318,2.523c2.172,3.915,3.42,8.104,4.803,12.335
					c1.396,4.269,3.746,8.105,5.289,12.318c2.16,5.897,7.055,16.458,3.604,22.481c-2.49,4.345-11.102,3.31-15.189,3.144
					c-3.439-0.139-6.867-0.521-10.304-0.722c-3.621-0.211-6.931-1.157-10.489-1.591C299.404,451.312,299.442,456.316,302.6,456.701
					L302.6,456.701z"/>
			</g>
		</g>
		<g clip-path="url(#SVGID_2_)">
			<g>
				<path fill="#BF4141" d="M376.602,456.369c1.531,1.751,4.507,2.343,6.622,2.984c4.35,1.318,8.838,1.901,13.312,2.63
					c3.773,0.614,8.084,3.381,11.851,1.875c3.18-1.271,3.65-4.935,3.606-7.899c-0.145-9.618-2.384-18.849-5.603-27.882
					c-2.818-7.907-7.327-15.144-14.834-19.276c-2.826-1.556-5.349,2.763-2.523,4.318c11.627,6.4,16.275,23.546,17.606,35.913
					c0.289,2.678,0.332,5.504,0.372,8.201c0.05,3.29-9.138-0.069-10.802-0.341c-3.255-0.53-6.489-0.996-9.688-1.812
					c-1.685-0.43-5.2-0.894-6.384-2.246C378.01,450.402,374.488,453.954,376.602,456.369L376.602,456.369z"/>
			</g>
		</g>
		<g clip-path="url(#SVGID_2_)">
			<g>
				<path fill="#BF4141" d="M439.455,445.562c3.103,6.299,0.411,13.823,1.997,20.502c1.236,5.212,7.147,5.279,9.534,0.893
					c2.673-4.912,1.242-12.44,0.316-17.664c-1.745-9.838-7.623-18.416-14.794-25.147c-2.348-2.204-5.891,1.324-3.535,3.535
					c9.494,8.912,14.616,20.118,14.268,33.146c-0.031,1.163-0.229,2.279-0.522,3.4c-0.362,1.383-0.166,1.348-0.445,0.508
					c-0.643-1.926-0.479-4.211-0.441-6.212c0.098-5.39,0.387-10.519-2.059-15.484C442.349,440.146,438.036,442.681,439.455,445.562
					L439.455,445.562z"/>
			</g>
		</g>
		<g clip-path="url(#SVGID_2_)">
			<g>
				<path fill="#BF4141" d="M264.797,446.126c-0.821-5.871-1.838-11.729-2.075-17.651c-0.27-6.748-0.205-14.242-2.891-20.532
					c-2.236-5.238-4.281-10.921-9.567-13.701c-4.639-2.439-10.222-1.433-14.729,0.687c-2.916,1.372-0.376,5.682,2.523,4.318
					c4.602-2.165,10.235-2.062,13.335,2.479c3.494,5.117,4.983,11.668,5.768,17.635c0.736,5.605,0.156,11.361,1.147,16.931
					c0.662,3.718,1.144,7.43,1.667,11.166C260.421,450.638,265.238,449.278,264.797,446.126L264.797,446.126z"/>
			</g>
		</g>
		<g clip-path="url(#SVGID_2_)">
			<g>
				<path fill="#BF4141" d="M340.235,444.92c-0.175-0.069-0.349-0.139-0.522-0.209c0.582,0.582,1.164,1.164,1.746,1.746
					c-0.196-0.771,0.352-2.008,0.526-2.777c0.334-1.477,0.199-3.182-0.094-4.653c-0.759-3.812-1.859-7.538-2.633-11.354
					c-1.745-8.609-3.761-16.761-3.615-25.639c0.097-5.941,0.813-11.604-4.001-15.876c-5.002-4.438-10.49-1.757-14.311,2.558
					c-2.13,2.404,1.394,5.954,3.535,3.535c2.852-3.22,7.261-5.125,9.442,0.194c1.121,2.734,0.401,6.723,0.334,9.589
					c-0.162,6.849,0.796,13.625,2.146,20.33c1.264,6.278,3.731,12.606,4.353,18.98c0.318,3.275-2.436,6.716,1.763,8.398
					C341.901,450.942,343.189,446.104,340.235,444.92L340.235,444.92z"/>
			</g>
		</g>
		<g clip-path="url(#SVGID_2_)">
			<g>
				<path fill="#BF4141" d="M402.22,453.512c11.381,2.956,2.888-29.844,2.152-32.953c-1.689-7.153-1.66-20.069-10.188-23.163
					c-7.059-2.56-14.276,2.513-19.77,6.421c-2.604,1.852-0.11,6.19,2.523,4.316c3.978-2.829,8.437-6.2,13.486-6.465
					c7.163-0.376,7.899,13.688,8.754,18.461c1.08,6.037,3.148,11.783,3.617,17.937c0.141,1.843,0.194,3.69,0.2,5.539
					c0.003,0.958-0.05,1.913-0.111,2.869c-0.035,0.606-0.122,1.206-0.26,1.797c-0.446,0.862-0.138,1.002,0.926,0.419
					C400.426,447.878,399.102,452.701,402.22,453.512L402.22,453.512z"/>
			</g>
		</g>
		<g clip-path="url(#SVGID_2_)">
			<g>
				<path fill="#BF4141" d="M449.363,448.354c-2.296-5.14-2.324-11.368-3.941-16.757c-1.283-4.278-3.923-8.748-7.36-11.63
					c-2.453-2.057-6.009,1.461-3.535,3.535c8.271,6.935,6.503,18.384,10.521,27.375
					C446.359,453.817,450.667,451.271,449.363,448.354L449.363,448.354z"/>
			</g>
		</g>
		<g clip-path="url(#SVGID_2_)">
			<g>
				<path fill="#BF4141" d="M171.414,470.365c7.454,3.859,7.354-7.824,7.165-12.055c-0.216-4.835-0.442-9.679-0.778-14.507
					c-0.273-3.921-0.553-7.831,0.009-11.738c0.496-3.449,1.247-6.811,1.471-10.297c0.361-5.615-2.468-10.317-6.779-13.685
					c-4.547-3.551-10.653-2.221-15.857-1.177c-10.224,2.051-17.098,14.843-13.458,24.381c1.138,2.98,5.973,1.688,4.821-1.33
					c-3.091-8.102,3.051-16.843,11.189-18.475c5.993-1.202,10.472-0.743,13.962,4.649c2.616,4.041,0.564,10.281-0.17,14.604
					c-1.314,7.729-0.187,16.175,0.352,23.956c0.146,2.097,0.286,4.189,0.322,6.292c0.02,1.174-0.037,2.344-0.133,3.513
					c-0.058,0.52-0.159,1.03-0.303,1.532c-0.413,0.721-0.176,0.727,0.711,0.018C171.079,464.567,168.549,468.882,171.414,470.365
					L171.414,470.365z"/>
			</g>
		</g>
		<path clip-path="url(#SVGID_2_)" fill="#444442" d="M571.248,565.062c-44.023,51.828-472.691,49.441-519.411,4.3
			c-46.71-45.142-67.361-391.719-4.3-519.414c54.992-62.418,491.539-52.024,519.411-4.297
			C609.327,87.594,615.275,513.233,571.248,565.062z"/>
		<polygon opacity="0.4" clip-path="url(#SVGID_2_)" fill="#232323" points="121.418,512.457 440.916,831.958 805.136,467.738 
			492.779,155.386 		"/>
		<path clip-path="url(#SVGID_2_)" fill="#CE4545" d="M510.722,208.471c-16.765,44.415-9.39,167.685,0,206.802
			c9.39,39.118,34.003,89.428-46.568,82.908c-141.597-44.712-259.894-1.301-283.184,7.265
			c-23.284,8.565-58.686,36.049-81.048-28.689c-40.98-102.003,34.666-292.57,50.929-325.721
			c16.263-33.145,51.854-59.933,96.875-58.996c160.217-7.142,232.555,53.742,237.85,57.751
			C490.873,153.804,521.286,175.257,510.722,208.471z"/>
		<path clip-path="url(#SVGID_2_)" fill="#F2F6F9" d="M262.946,109.732c0,0-6.529,88.496,4.969,129.18
			c2.466,6.248,2.248,18.005,30.423,19.865c19.335,1.168,17.159-0.461,31.054,0c13.896,0.467,46.187-10.476,44.709-46.575
			c-1.468-36.093-11.021-46.581-10.551-93.769C350.975,108.804,262.946,109.732,262.946,109.732z"/>
		<path clip-path="url(#SVGID_2_)" fill="#F2F6F9" d="M383.342,136.051c0,0,4.66,100.834,12.111,113.646
			c9.777,13.27,18.857,11.877,18.857,11.877s12.582-0.77,27.48-2.368c17.696-0.657,17.466-19.527,17.466-19.527
			s-2.334-55.892-3.021-71.254c-0.701-15.375-3.959-15.136-9.32-19.796c-5.357-4.66-25.848-15.603-45.41-23.991
			C381.946,116.262,383.342,136.051,383.342,136.051z"/>
		<path clip-path="url(#SVGID_2_)" fill="#F2F6F9" d="M472.068,167.49c-0.814,3.378-1.862,55.188,0,63.112
			c1.866,7.918,10.826,24.563,20.954,0c4.196-7.798,2.273-38.448,1.629-47.282c0.471-6.513-13.506-17.459-13.506-17.459
			S473.347,157.829,472.068,167.49z"/>
		<path clip-path="url(#SVGID_2_)" fill="#F2F6F9" d="M150.541,495.073c6.134-2.721,11.489-3.808,22.356-5.278
			c10.867-1.472,11.482-16.765,11.482-16.765s-3.722-30.738-2.478-49.991c1.237-19.259-11.17-22.012-19.565-23.287
			c-14.981-1.56-34.701,10.312-49.366,19.252c-13.51,9.074-7.631,30.96-4.657,36.018c2.968,5.052,19.543,34.154,21.734,37.021
			C132.664,494.809,137.346,500.668,150.541,495.073z"/>
		<path clip-path="url(#SVGID_2_)" fill="#F2F6F9" d="M232.514,474.274c-25.153,3.726-24.459-4.755-27.326-14.283
			c-1.478-8.462-9.472-37.57-5.279-56.517c3.107-9.311,4.66-13.353,12.73-14.748c8.07-1.401,9.784-0.013,19.875-1.862
			c14.122-3.731,20.026,2.488,20.026,2.488s14.132,10.86,16.607,65.359c-0.613,10.091-12.104,13.816-12.104,13.816
			S249.24,471.312,232.514,474.274z"/>
		<path clip-path="url(#SVGID_2_)" fill="#F2F6F9" d="M337.774,395.56c0.154-17.542-9.33-17.782-11.644-17.699
			c-2.309,0.082-25.154,0.935-25.154,0.935s-17.383-0.777-16.922,15.521c0.474,16.297,5.897,54.177,5.897,54.177
			s1.557,15.066,12.73,13.671c11.183-1.396,28.26-0.622,28.26-0.622s17.699-0.625,16.773-16.458
			C346.466,432.972,337.619,413.101,337.774,395.56z"/>
		<path clip-path="url(#SVGID_2_)" fill="#F2F6F9" d="M358.116,414.812c-5.904-24.063,3.726-24.683,9.616-23.912
			c5.901,0.776,6.059,1.859,18.792,0c12.736-1.863,16.916,12.724,16.916,12.724s6.529,26.552,10.558,45.962
			c4.041,19.41-10.551,16.152-10.551,16.152s-13.658-4.818-21.119-2.021c-17.074,3.567-18.314-11.644-17.541-15.527
			C365.567,444.306,363.395,430.064,358.116,414.812z"/>
		<path clip-path="url(#SVGID_2_)" fill="#F2F6F9" d="M427.047,423.968c1.234-26.861,9.774-13.191,14.28-4.654
			c4.502,8.531,7.454,13.349,9.623,37.729c2.175,24.374-10.952,16.184-13.504,11.486
			C434.896,463.83,425.806,450.822,427.047,423.968z"/>
		<path clip-path="url(#SVGID_2_)" fill="#F2F6F9" d="M154.263,180.226c1.711,16.292,16.3,35.547,28.566,45.641
			c27.947,26.855,60.245-8.853,61.479-31.673c1.241-7.142-1.55-64.893-1.55-64.893s1.55-17.86-10.249-18.009
			C208.917,109.426,160.785,157.558,154.263,180.226z"/>
	</g>
</g>
<g id="Layer_2" display="none">
	<path display="inline" fill="#FFED9F" d="M577.318,567.402c-44.376,52.877-479.495,53.069-527.187,7.531
		S-20.63,177.744,42.61,47.751c55.425-63.696,498.595-55.799,527.177-7.525C613.056,82.543,621.689,514.532,577.318,567.402z"/>
	<g id="Layer_9" display="inline">
		<g>
			<g>
				<path fill="#E5D48C" d="M163.228,302.861c-1.59,10.594,13.154,12.453,20.62,13.039c11.112,0.873,21.241-1.079,26.122-12.211
					c4.386-10.007,3.751-25.177-5.855-31.988c-9.695-6.874-28.438-7.39-36.959,1.616c-2.214,2.34,1.315,5.881,3.535,3.535
					c6.906-7.298,20.812-5.967,29.051-1.923c9.082,4.458,8.857,17.632,6.05,25.828c-2.923,8.535-9.86,10.291-17.926,10.298
					c-3.564,0.004-20.769-0.511-19.815-6.865C168.522,301.038,163.705,299.682,163.228,302.861L163.228,302.861z"/>
			</g>
		</g>
		<g>
			<g>
				<path fill="#E5D48C" d="M410.985,301.769c-5.912,17.968,33.309,13.148,40.821,6.808c11.255-9.5,16.161-24.085,14.162-38.54
					c-1.088-7.865-3.863-15.097-7.595-22.069c-4.337-8.101-10.677-14.887-14.38-23.367c-1.288-2.949-5.595-0.401-4.318,2.523
					c5.572,12.758,15.668,22.524,19.786,36.103c3.77,12.43,2.222,26.207-5.951,36.541c-5.688,7.19-12.96,8.893-21.784,9.456
					c-3.79,0.241-18.205,0.819-15.919-6.125C416.818,300.026,411.989,298.721,410.985,301.769L410.985,301.769z"/>
			</g>
		</g>
		<g>
			<g>
				<path fill="#E5D48C" d="M205.846,193.723c-5.613,1.515-10.022,6.144-13.908,10.215c-5.144,5.388-10.261,11.182-14.845,17.046
					c-9.731,12.444-13.367,27.826-6.849,42.576c0.52,1.177,2.243,0.159,1.727-1.01c-7.008-15.86-1.083-31.465,9.647-43.943
					c3.54-4.117,7.139-8.228,10.794-12.244c3.807-4.184,8.325-9.189,13.966-10.711C207.621,195.315,207.092,193.386,205.846,193.723
					L205.846,193.723z"/>
			</g>
		</g>
		<g>
			<g>
				<path fill="#E5D48C" d="M424.922,202.113c2.946,2.127,5.199,4.692,7.458,7.502c2.349,2.922,6.012,5.173,8.954,7.451
					c6.22,4.813,10.975,10.448,14.879,17.272c3.547,6.2,5.548,13.262,4.565,20.408c-1.103,8.015-6.692,14.485-12.539,19.632
					c-0.97,0.854,0.45,2.263,1.414,1.414c11.708-10.305,16.616-23.356,10.404-38.169c-3.198-7.628-8.402-14.576-14.7-19.892
					c-3.4-2.87-7.047-5.412-10.368-8.381c-3.214-2.874-5.498-6.393-9.058-8.963C424.884,199.63,423.887,201.366,424.922,202.113
					L424.922,202.113z"/>
			</g>
		</g>
		<g>
			<g>
				<path fill="#E5D48C" d="M450.816,230.196c3.481,5.812,7.88,11.552,9.883,18.096c2.545,8.313-3.744,16.252-8.631,22.259
					c-0.807,0.991,0.6,2.415,1.414,1.414c4.91-6.036,10.308-12.969,9.714-21.188c-0.566-7.83-6.793-15.146-10.653-21.592
					C451.882,228.082,450.151,229.086,450.816,230.196L450.816,230.196z"/>
			</g>
		</g>
		<g>
			<g>
				<path fill="#E5D48C" d="M458.32,240.356c0.034-0.273,0.068-0.547,0.103-0.82c-0.502,0.288-1.003,0.576-1.505,0.863
					c2.496,1.461,4.098,7.601,4.896,10.191c1.341,4.354,1.842,9.181,0.183,13.496c-0.464,1.206,1.47,1.722,1.928,0.531
					c1.824-4.742,1.091-9.768-0.182-14.559c-0.953-3.591-2.397-9.386-5.814-11.386c-0.718-0.42-1.414,0.14-1.505,0.863
					c-0.034,0.273-0.068,0.547-0.103,0.82C456.16,241.634,458.162,241.618,458.32,240.356L458.32,240.356z"/>
			</g>
		</g>
	</g>
	<g display="inline">
		<path fill="#444442" d="M401.204,179.968c20.579,11.053,36.279,23.778,47.098,38.177c10.813,14.402,16.286,31.62,16.408,51.666
			c0.186,31.22-12.351,46.91-37.594,47.056c-19.254,0.119-28.941-10.344-29.065-31.373c-0.097-16.44,9.002-24.708,27.306-24.817
			c6.945-0.042,10.394-3.833,10.349-11.402c-0.02-3.281-0.276-6.813-0.77-10.588c-0.5-3.775-2.022-8.043-4.573-12.793
			c-2.558-4.75-6.617-9.985-12.171-15.706c-5.554-5.714-13.562-11.998-24.022-18.84L401.204,179.968z"/>
	</g>
	<g display="inline">
		<path fill="#444442" d="M211.739,190.793c-10.255,7.133-18.074,13.645-23.471,19.516c-5.383,5.877-9.287,11.229-11.712,16.042
			c-2.417,4.826-3.82,9.133-4.205,12.917c-0.391,3.791-0.545,7.329-0.474,10.611c0.173,7.562,3.736,11.261,10.668,11.101
			c18.305-0.411,27.643,7.595,28.015,24.032c0.468,21.025-8.915,31.754-28.162,32.19c-25.241,0.567-38.22-14.754-38.925-45.967
			c-0.452-20.042,4.532-37.412,14.927-52.114c10.401-14.697,25.729-27.868,45.989-39.507L211.739,190.793z"/>
	</g>
</g>
<g id="Layer_3" display="none">
	<g id="Layer_7" display="inline">
	</g>
	<g display="inline">
		<defs>
			<path id="SVGID_3_" d="M579.377,569.831c-44.912,52.868-482.205,50.445-529.854,4.387c-47.66-46.05-68.727-399.598-4.39-529.855
				c56.091-63.68,501.422-53.073,529.854-4.383C618.213,82.766,624.287,516.96,579.377,569.831z"/>
		</defs>
		<clipPath id="SVGID_4_">
			<use xlink:href="#SVGID_3_"  overflow="visible"/>
		</clipPath>
		<path clip-path="url(#SVGID_4_)" fill="#EFD5EC" d="M579.377,569.831c-44.912,52.868-482.205,50.445-529.854,4.387
			c-47.66-46.05-68.727-399.598-4.39-529.855c56.091-63.68,501.422-53.073,529.854-4.383
			C618.213,82.766,624.287,516.96,579.377,569.831z"/>
		<polygon opacity="0.7" clip-path="url(#SVGID_4_)" fill="#633F19" points="166.437,486.245 459.69,779.498 805.444,433.74 
			476.628,104.925 		"/>
		<path clip-path="url(#SVGID_4_)" fill="#DAB96A" d="M549.274,314.701c-0.004,126.824-102.809,229.629-229.63,229.629
			c-126.821,0-229.632-102.805-229.632-229.633c0-126.821,102.808-229.628,229.632-229.632
			C446.463,85.069,549.276,187.876,549.274,314.701z"/>
		<g clip-path="url(#SVGID_4_)">
			<g>
				<path fill="#BC9F64" d="M101.786,354.829c-2.636,7.308,8.654,9.548,13.409,10.551c11.846,2.498,23.277,5.789,34.733,9.768
					c27.033,9.387,51.705,28.358,81.587,25.255c14.453-1.501,28.37-6.69,43.006-6.566c14.138,0.119,27.641,6.227,40.977,10.198
					c13.718,4.086,27.39,4.508,41.519,2.555c15.789-2.183,30.84-8.464,46.706-9.846c10.823-0.942,21.744,0.268,32.568,0.593
					c5.569,0.167,11.125-0.011,16.667-0.591c5.374-0.562,10.495-2.626,15.679-4.031c10.361-2.809,21.45-1.107,31.967-3.54
					c10.896-2.521,20.974-7.735,31.759-10.656c1.152-0.312,1.725-1.292,1.835-2.411c0.534-5.399,1.913-10.634,2.062-16.078
					c0.088-3.227-4.912-3.218-5,0c-0.148,5.429-1.528,10.688-2.062,16.078c0.612-0.804,1.224-1.607,1.835-2.411
					c-14.612,3.959-27.944,11.389-43.305,12.314c-6.882,0.415-13.67,0.27-20.42,1.883c-3.394,0.811-6.699,2.003-10.061,2.938
					c-4.427,1.23-9.06,1.396-13.626,1.533c-15.19,0.458-30.263-2.008-45.426-0.018c-15.399,2.021-30.057,7.903-45.558,9.819
					c-15.252,1.885-29.243-0.714-43.696-5.425c-12.895-4.203-25.767-8.562-39.522-7.782c-14.601,0.827-28.566,6-43.175,6.878
					c-15.5,0.932-29.898-5.554-43.558-12.08c-15.438-7.376-30.907-13.646-47.299-18.637c-2.431-0.74-29.763-6.239-28.781-8.96
					C107.704,353.118,102.872,351.82,101.786,354.829L101.786,354.829z"/>
			</g>
		</g>
		<path clip-path="url(#SVGID_4_)" fill="#FFFFFF" d="M96.577,338.715c0,0,0.892-5.666-12.94,9.57
			c-11.595,12.916,4.618,14.371,11.111,13.928c6.492-0.438,37.569,3.685,51.144,11.388c13.572,7.697,37.927,19.82,58.443,23.569
			s38.143,2.074,58.636-1.888c23.402-5.526,54.063,23.408,104.18,7.756c45.624-14.558,62.436-2.307,93.519-7.421
			c33.006-6.924,23.233,2.178,50.951-9.308c14.429-7.846,11.179-6.394,28.137-11.079c16.967-4.687,18.203-8,14.537-16.091
			c-3.681-8.084-12.039-11.343-12.039-11.343s-215.496-8.188-230.021-7.523C297.709,340.937,96.577,338.715,96.577,338.715z"/>
		<path clip-path="url(#SVGID_4_)" fill="#DAB96A" d="M80.692,306.198c0,0,0.174,31.589,22.056,42.384
			c59.241,34.881,324.32,31.509,425.875,17.624c16.507-9.212,20.011-23.537,20.011-23.537l0.642-51.138l-71.727-49.608
			l-107.471-8.377c0,0-128.634-1.894-128.911-0.96c-0.271,0.935-116.376,29.682-116.376,29.682l-45.547,31.853L80.692,306.198z"/>
		<g clip-path="url(#SVGID_4_)">
			<g>
				<path fill="#BC9F64" d="M89.561,301.748c0.043-0.16,0.087-0.32,0.13-0.48c1.607,0,3.214,0,4.822,0
					c-0.261-0.959-0.5-1.943-0.592-2.935c-0.125-1.356-1.042-2.5-2.5-2.5c-0.184,0-0.367,0-0.551,0
					c-1.047,0-2.201,0.755-2.411,1.835c-3.135,16.137,25.861,14.101,35.065,12.402c13.497-2.491,26.277-10.334,38.443-16.342
					c5.849-2.888,11.606-5.861,17.839-7.854c7.552-2.415,15.548-2.367,23.382-1.961c14.856,0.77,29.048,5.706,44.007,4.958
					c13.618-0.681,25.937-6.05,37.601-12.742c5.438-3.12,10.755-6.407,16.466-9.02c7.039-3.221,14.386-3.946,22.038-3.729
					c13.844,0.392,27.34,4.682,39.488,11.165c16.248,8.671,27.6,22.867,42.291,33.547c6.891,5.01,14.688,8.569,23.226,9.313
					c8.229,0.717,16.001-3.109,22.556-7.675c14.943-10.409,25.888-25.429,43.8-31.359c20.356-6.739,29.661,13.665,45.677,21.025
					c1.728,0.794,3.684-0.143,3.762-2.159c0.33-8.524-2.109-16.614-3.941-24.852c-0.7-3.147-5.521-1.812-4.822,1.329
					c1.737,7.808,4.076,15.437,3.764,23.522c1.254-0.72,2.508-1.439,3.762-2.159c-10.727-4.931-17.578-15.336-28.122-20.597
					c-10.503-5.24-22.222-1.556-31.925,3.645c-10.559,5.658-19.017,14.26-27.945,22.066c-10.581,9.25-21.895,15.169-35.917,10
					c-12.449-4.59-21.801-15.315-31.336-24.036c-9.199-8.414-19.874-15.475-31.382-20.295c-12.042-5.044-24.753-7.648-37.817-7.527
					c-13.039,0.121-23.828,6.265-34.767,12.677c-8.063,4.727-16.337,8.897-25.436,11.204c-10.422,2.643-21.036,2.014-31.476-0.021
					c-17.852-3.48-36.677-6.013-54.001,0.931c-16.999,6.814-32.476,18.167-50.541,22.125c-5.129,1.124-30.723,3.06-28.915-6.251
					c-0.804,0.612-1.607,1.224-2.411,1.835c0.184,0,0.367,0,0.551,0c-0.833-0.833-1.667-1.667-2.5-2.5
					c0.133,1.442,0.39,2.866,0.77,4.264c0.605,2.226,4.442,2.55,4.822,0c0.118-0.796,0.015-1.389-0.13-2.178
					C93.799,297.251,88.98,298.597,89.561,301.748L89.561,301.748z"/>
			</g>
		</g>
		<path clip-path="url(#SVGID_4_)" fill="#633F19" d="M70.263,261.981c0,0,1.972-89.687,71.509-153.167
			c65.332-83.177,249.961-58.011,301.402-27.457c37.134,17.724,56.071,49.969,69.934,74.73
			c13.858,24.764,16.806,46.14,36.564,105.806c19.745,59.673-17.427,30.227-17.427,30.227s-45.895-37.312-71.078,0.332
			c-33.128,47.519-64.912,4.129-64.912,4.129s-62.772-60.149-114.499-22.555c-33.28,21.801-74.534,7.823-74.534,7.823
			s-25.553-9.704-54.72,11.524c-39.92,24.129-60.575,20.246-71.209,8.645C68.254,287.802,70.263,261.978,70.263,261.981z"/>
	</g>
</g>
<g id="Layer_11" display="none">
	<g id="Layer_12" display="inline">
	</g>
	<g display="inline">
		<defs>
			<path id="SVGID_5_" d="M576.407,569.686c-44.661,52.579-479.543,50.164-526.93,4.365C2.083,528.253-18.87,176.656,45.118,47.118
				C100.894-16.21,543.77-5.663,572.042,42.759C615.031,85.309,621.072,517.109,576.407,569.686z"/>
		</defs>
		<clipPath id="SVGID_6_">
			<use xlink:href="#SVGID_5_"  overflow="visible"/>
		</clipPath>
		<path clip-path="url(#SVGID_6_)" fill="#93344F" d="M386.872,148.922c39.255-8.812,52.53-21.264,66.28-27.897
			c-0.07,6.685,2.242,3.415,2.242,3.415s-61.691,32.141-68.522,24.899"/>
		<path clip-path="url(#SVGID_6_)" fill="#7D9979" d="M576.407,569.686c-44.661,52.579-479.543,50.164-526.93,4.365
			C2.083,528.253-18.87,176.656,45.118,47.118C100.894-16.21,543.77-5.663,572.042,42.759
			C615.031,85.309,621.072,517.109,576.407,569.686z"/>
		<path opacity="0.1" clip-path="url(#SVGID_6_)" fill="#B5334C" d="M233.712,150.143c0,0,89.953,113.863,90.773,114.684
			c0.82,0.82,23.506-106.462,23.506-106.462L233.712,150.143z"/>
		<g clip-path="url(#SVGID_6_)">
			<polygon opacity="0.1" fill="#B5334C" points="127.759,461.12 453.604,786.958 786.759,453.805 453.152,121.025 316.859,317.06 
				192.692,404.678 141.669,432.508 			"/>
		</g>
		<path clip-path="url(#SVGID_6_)" fill="#A0354F" d="M268.694,332.855c11.204,16.259,28.974-133.933-34.982-182.713
			c105.222-70.381,227.394-35.123,219.47-28.173c-8.199,81.604-3.155,133.257-3.155,133.257"/>
		<path clip-path="url(#SVGID_6_)" fill="#93344F" d="M291.896,268.234c0,0-1.127-114.177-19-138.987
			c9.987-5.08,13.433-6.431,23.436-9.288c31.616,24.22,108.44,30.741,108.44,30.741L291.896,268.234z"/>
		<path clip-path="url(#SVGID_6_)" fill="#1C6BA0" d="M208.646,368.831c0,0,35.079-7.95,41.023-3.303
			c5.945,4.647-16.399-6.697-16.399-6.697L208.646,368.831"/>
		<path clip-path="url(#SVGID_6_)" fill="#B5334C" d="M269.213,330.268c31.151-33.528,20.499-159.341-6.284-211.27
			c134.465,58.485,189.132,4.605,190.224,2.027c6.076-0.183-1.688,22.411-3.683,45.917c-0.811,49.187-0.067,59.991,2.969,136.146
			c4.564,47.951,18.75,92.5,18,116.829c-8.891,19.436-61.569,33.483-93.406,24.599c-73.119,34.988-204.166,41.817-254.135,7.226
			c-4.555-35.92,14.029-56.419,23.593-65.409c19.41-11.787,29.874-10.15,45.917-14.247
			C241.334,364.161,257.125,345.046,269.213,330.268z"/>
		<path clip-path="url(#SVGID_6_)" fill="#1C75BC" d="M122.897,451.741c97.58,43.701,252.082,3.979,252.901-12.689
			c28.084,12.229,76.665,0.339,94.839-19.954c7.661,31.362-80.489,49.396-91.559,27.058c-0.743,1.816-1.861,3.571-3.318,5.266
			C342.3,490.253,128.989,496.422,122.897,451.741z"/>
		<path clip-path="url(#SVGID_6_)" fill="#A0354F" d="M250.674,367.928c0,0,35.751,35.591,32.439,51.17
			c17.802-16.675,56.416-41.817,74.461-36.897c-6.918-4.709-60.57-26.783-60.57-26.783L250.674,367.928z"/>
		<path clip-path="url(#SVGID_6_)" fill="#1C75BC" d="M208.646,368.831c57.422-23.253,68.575,39.69,76.774,38.87
			c14.599-5.477,46.737-31.157,72.155-33.207c-45.916-12.306-58.075-33.711-72.155-47.558
			c-15.681-17.885-42.451,24.099-42.451,24.099S236.998,353.835,208.646,368.831z"/>
	</g>
</g>
<g id="Layer_14">
	<g id="borNWJ.tif" display="none">
		
			<image display="inline" overflow="visible" width="1024" height="1024" id="Layer_0_1_" xlink:href="D38536CA198CFA2E.png"  transform="matrix(1 0 0 1 -267 -126)">
		</image>
	</g>
	<circle display="none" fill="#595857" cx="251.577" cy="344.871" r="105.015"/>
	<circle display="none" fill="#FFFFFF" cx="251.086" cy="344.381" r="95.44"/>
	<circle display="none" fill="#E26244" cx="250.241" cy="342.669" r="48.667"/>
	<polygon display="none" fill="#FFFFFF" points="236.636,321.483 236.636,361.559 273.279,341.521 	"/>
</g>
</svg>
